<?xml version="1.0" encoding="UTF-8" standalone="no"?>
<svg
   xmlns:dc="http://purl.org/dc/elements/1.1/"
   xmlns:cc="http://creativecommons.org/ns#"
   xmlns:rdf="http://www.w3.org/1999/02/22-rdf-syntax-ns#"
   xmlns:svg="http://www.w3.org/2000/svg"
   xmlns="http://www.w3.org/2000/svg"
   xmlns:sodipodi="http://sodipodi.sourceforge.net/DTD/sodipodi-0.dtd"
   xmlns:inkscape="http://www.inkscape.org/namespaces/inkscape"
   width="131.83727mm"
   height="131.83727mm"
   viewBox="0 0 131.83728 131.83726"
   version="1.1"
   id="svg16"
   inkscape:version="1.0.1 (3bc2e813f5, 2020-09-07, custom)"
   sodipodi:docname="logo.svg"
   inkscape:export-filename="/home/soenke/Projects/covid-inzidenz-bot/resources/logo-300-dpi.png"
   inkscape:export-xdpi="300"
   inkscape:export-ydpi="300">
  <defs
     id="defs10">
    <marker
       style="overflow:visible"
       id="marker7202"
       refX="0"
       refY="0"
       orient="auto"
       inkscape:stockid="Arrow1Mstart"
       inkscape:isstock="true">
      <path
         transform="matrix(0.4,0,0,0.4,4,0)"
         style="fill:#000000;fill-opacity:1;fill-rule:evenodd;stroke:#000000;stroke-width:1pt;stroke-opacity:1"
         d="M 0,0 5,-5 -12.5,0 5,5 Z"
         id="path7200" />
    </marker>
    <marker
       style="overflow:visible"
       id="marker7108"
       refX="0"
       refY="0"
       orient="auto"
       inkscape:stockid="Arrow1Mend"
       inkscape:isstock="true">
      <path
         transform="matrix(-0.4,0,0,-0.4,-4,0)"
         style="fill:#000000;fill-opacity:1;fill-rule:evenodd;stroke:#000000;stroke-width:1pt;stroke-opacity:1"
         d="M 0,0 5,-5 -12.5,0 5,5 Z"
         id="path7106" />
    </marker>
    <marker
       style="overflow:visible"
       id="marker7020"
       refX="0"
       refY="0"
       orient="auto"
       inkscape:stockid="Arrow1Lend"
       inkscape:isstock="true">
      <path
         transform="matrix(-0.8,0,0,-0.8,-10,0)"
         style="fill:#000000;fill-opacity:1;fill-rule:evenodd;stroke:#000000;stroke-width:1pt;stroke-opacity:1"
         d="M 0,0 5,-5 -12.5,0 5,5 Z"
         id="path7018" />
    </marker>
    <marker
       style="overflow:visible"
       id="marker6036"
       refX="0"
       refY="0"
       orient="auto"
       inkscape:stockid="Arrow1Mstart"
       inkscape:isstock="true">
      <path
         transform="matrix(0.4,0,0,0.4,4,0)"
         style="fill:#ffffff;fill-opacity:1;fill-rule:evenodd;stroke:#000000;stroke-width:1pt;stroke-opacity:1"
         d="M 0,0 5,-5 -12.5,0 5,5 Z"
         id="path6034" />
    </marker>
    <marker
       style="overflow:visible"
       id="Arrow2Lstart"
       refX="0"
       refY="0"
       orient="auto"
       inkscape:stockid="Arrow2Lstart"
       inkscape:isstock="true">
      <path
         transform="matrix(1.1,0,0,1.1,1.1,0)"
         d="M 8.7185878,4.0337352 -2.2072895,0.01601326 8.7185884,-4.0017078 c -1.7454984,2.3720609 -1.7354408,5.6174519 -6e-7,8.035443 z"
         style="fill:#000000;fill-opacity:1;fill-rule:evenodd;stroke:#000000;stroke-width:0.625;stroke-linejoin:round;stroke-opacity:1"
         id="path1135" />
    </marker>
    <marker
       style="overflow:visible"
       id="Arrow1Sstart"
       refX="0"
       refY="0"
       orient="auto"
       inkscape:stockid="Arrow1Sstart"
       inkscape:isstock="true">
      <path
         transform="matrix(0.2,0,0,0.2,1.2,0)"
         style="fill:#000000;fill-opacity:1;fill-rule:evenodd;stroke:#000000;stroke-width:1pt;stroke-opacity:1"
         d="M 0,0 5,-5 -12.5,0 5,5 Z"
         id="path1129" />
    </marker>
    <marker
       style="overflow:visible"
       id="marker4649"
       refX="0"
       refY="0"
       orient="auto"
       inkscape:stockid="Arrow1Mend"
       inkscape:isstock="true">
      <path
         transform="matrix(-0.4,0,0,-0.4,-4,0)"
         style="fill:#ffffff;fill-opacity:1;fill-rule:evenodd;stroke:#000000;stroke-width:1pt;stroke-opacity:1"
         d="M 0,0 5,-5 -12.5,0 5,5 Z"
         id="path4647" />
    </marker>
    <marker
       style="overflow:visible"
       id="marker4597"
       refX="0"
       refY="0"
       orient="auto"
       inkscape:stockid="Arrow1Mstart"
       inkscape:isstock="true">
      <path
         transform="matrix(0.4,0,0,0.4,4,0)"
         style="fill:#ffffff;fill-opacity:1;fill-rule:evenodd;stroke:#000000;stroke-width:1pt;stroke-opacity:1"
         d="M 0,0 5,-5 -12.5,0 5,5 Z"
         id="path4595" />
    </marker>
    <marker
       style="overflow:visible"
       id="marker4047"
       refX="0"
       refY="0"
       orient="auto"
       inkscape:stockid="Arrow1Lstart"
       inkscape:isstock="true">
      <path
         transform="matrix(0.8,0,0,0.8,10,0)"
         style="fill:#000000;fill-opacity:1;fill-rule:evenodd;stroke:#000000;stroke-width:1pt;stroke-opacity:1"
         d="M 0,0 5,-5 -12.5,0 5,5 Z"
         id="path4045" />
    </marker>
    <marker
       style="overflow:visible"
       id="marker4001"
       refX="0"
       refY="0"
       orient="auto"
       inkscape:stockid="Arrow1Lend"
       inkscape:isstock="true">
      <path
         transform="matrix(-0.8,0,0,-0.8,-10,0)"
         style="fill:#000000;fill-opacity:1;fill-rule:evenodd;stroke:#000000;stroke-width:1pt;stroke-opacity:1"
         d="M 0,0 5,-5 -12.5,0 5,5 Z"
         id="path3999" />
    </marker>
    <marker
       style="overflow:visible"
       id="Arrow1Lend"
       refX="0"
       refY="0"
       orient="auto"
       inkscape:stockid="Arrow1Lend"
       inkscape:isstock="true">
      <path
         transform="matrix(-0.8,0,0,-0.8,-10,0)"
         style="fill:none;fill-opacity:1;fill-rule:evenodd;stroke:#000000;stroke-width:1pt;stroke-opacity:1"
         d="M 0,0 5,-5 -12.5,0 5,5 Z"
         id="path1120" />
    </marker>
    <marker
       style="overflow:visible"
       id="Arrow1Lstart"
       refX="0"
       refY="0"
       orient="auto"
       inkscape:stockid="Arrow1Lstart"
       inkscape:isstock="true">
      <path
         transform="matrix(0.8,0,0,0.8,10,0)"
         style="fill:none;fill-opacity:1;fill-rule:evenodd;stroke:#000000;stroke-width:1pt;stroke-opacity:1"
         d="M 0,0 5,-5 -12.5,0 5,5 Z"
         id="path1117" />
    </marker>
    <marker
       style="overflow:visible"
       id="Arrow1Mend"
       refX="0"
       refY="0"
       orient="auto"
       inkscape:stockid="Arrow1Mend"
       inkscape:isstock="true">
      <path
         transform="matrix(-0.4,0,0,-0.4,-4,0)"
         style="fill:#ffffff;fill-opacity:1;fill-rule:evenodd;stroke:#000000;stroke-width:1pt;stroke-opacity:1"
         d="M 0,0 5,-5 -12.5,0 5,5 Z"
         id="path1126" />
    </marker>
    <marker
       style="overflow:visible"
       id="Arrow1Mstart"
       refX="0"
       refY="0"
       orient="auto"
       inkscape:stockid="Arrow1Mstart"
       inkscape:isstock="true">
      <path
         transform="matrix(0.4,0,0,0.4,4,0)"
         style="fill:#000000;fill-opacity:1;fill-rule:evenodd;stroke:#000000;stroke-width:1pt;stroke-opacity:1"
         d="M 0,0 5,-5 -12.5,0 5,5 Z"
         id="path1123" />
    </marker>
    <filter
       inkscape:collect="always"
       style="color-interpolation-filters:sRGB"
       id="filter4243"
       x="-0.0012048684"
       width="1.0024097"
       y="-0.0011951708"
       height="1.0023903">
      <feGaussianBlur
         inkscape:collect="always"
         stdDeviation="0.040148401"
         id="feGaussianBlur4245" />
    </filter>
  </defs>
  <sodipodi:namedview
     id="base"
     pagecolor="#00b1e6"
     bordercolor="#666666"
     borderopacity="1.0"
     inkscape:pageopacity="1"
     inkscape:pageshadow="2"
     inkscape:zoom="2.8"
     inkscape:cx="253.12618"
     inkscape:cy="259.99049"
     inkscape:document-units="mm"
     inkscape:current-layer="layer4"
     inkscape:document-rotation="0"
     showgrid="false"
     inkscape:window-width="1920"
     inkscape:window-height="1016"
     inkscape:window-x="0"
     inkscape:window-y="0"
     inkscape:window-maximized="1"
     showguides="true"
     inkscape:guide-bbox="true"
     inkscape:snap-nodes="false"
     inkscape:object-nodes="false"
     inkscape:snap-smooth-nodes="false"
     fit-margin-top="15"
     fit-margin-left="15"
     fit-margin-right="15"
     fit-margin-bottom="15"
     lock-margins="true"
     inkscape:snap-intersection-paths="false"
     inkscape:snap-to-guides="true">
    <inkscape:grid
       type="xygrid"
       id="grid7458" />
  </sodipodi:namedview>
  <metadata
     id="metadata13">
    <rdf:RDF>
      <cc:Work
         rdf:about="">
        <dc:format>image/svg+xml</dc:format>
        <dc:type
           rdf:resource="http://purl.org/dc/dcmitype/StillImage" />
        <dc:title></dc:title>
      </cc:Work>
    </rdf:RDF>
  </metadata>
  <g
     inkscape:groupmode="layer"
     id="layer2"
     inkscape:label="3 Covid"
     style="display:inline;opacity:1"
     transform="translate(-40.134398,-58.088193)">
    <path
       class="st0"
       d="m 155.89512,109.36911 c -0.76275,-1.10175 -2.03398,-0.678 -2.79673,-0.5085 -0.1695,0.0847 -0.339,0.0847 -0.5085,0.1695 0,-0.1695 0.0848,-0.339 0.1695,-0.5085 0.25425,-0.84749 0.678,-2.03398 -0.42374,-2.79673 -1.017,-0.67799 -2.03399,0.0847 -2.71198,0.59325 -0.0848,0.0847 -0.25425,0.1695 -0.339,0.25425 0,-0.1695 0,-0.339 0,-0.42375 0,-0.76274 -0.0848,-2.11873 -1.35599,-2.45773 -1.18649,-0.25425 -1.86448,0.84749 -2.37298,1.52549 -0.0848,0.0847 -0.1695,0.25425 -0.25425,0.33899 -0.0847,-0.16949 -0.0847,-0.25424 -0.1695,-0.42374 -0.339,-0.76275 -0.76274,-1.94924 -2.11873,-1.86449 -1.27124,0.1695 -1.52549,1.44074 -1.69499,2.20349 0,0.0847 -0.0848,0.25424 -0.0848,0.42374 -0.0847,-0.0847 -0.1695,-0.25425 -0.25425,-0.339 -0.59324,-0.67799 -1.44073,-1.61023 -2.62723,-1.10174 -1.10174,0.59325 -0.93224,1.86449 -0.84749,2.71198 0,0.1695 0.0847,0.339 0.0847,0.5085 -0.1695,-0.0847 -0.25425,-0.1695 -0.42375,-0.1695 -0.67799,-0.339 -1.94923,-1.01699 -2.88147,-0.0847 -0.8475,0.93224 -0.25425,2.03398 0.1695,2.79673 0.0847,0.1695 0.16949,0.42375 0.25424,0.59324 -0.1695,0 -0.42374,0 -0.59324,0 -0.8475,-0.0847 -2.20349,-0.16949 -2.71198,1.10175 -0.1695,0.42374 0,0.93224 0.42375,1.10174 0.42374,0.1695 0.93224,0 1.10174,-0.42375 0.0847,-0.1695 0.67799,-0.0847 1.01699,-0.0847 0.76274,0.0847 1.69499,0.0847 2.20348,-0.67799 0.5085,-0.76275 0.0848,-1.69499 -0.25425,-2.37299 -0.0847,-0.25424 -0.33899,-0.67799 -0.33899,-0.84749 0.16949,0 0.59324,0.25425 0.84749,0.339 0.67799,0.339 1.52549,0.76274 2.28823,0.25425 0.76275,-0.5085 0.678,-1.52549 0.5085,-2.28824 0,-0.25424 -0.0848,-0.67799 -0.0848,-0.84749 0.1695,0.1695 0.42375,0.42375 0.59324,0.59325 0.5085,0.59324 1.1865,1.27124 2.03399,1.01699 0.93224,-0.25425 1.10174,-1.18649 1.27124,-1.94924 0.0848,-0.25424 0.1695,-0.59324 0.1695,-0.76274 0.0848,0.1695 0.25425,0.5085 0.33899,0.76274 0.25425,0.76275 0.678,1.61024 1.52549,1.69499 0.93225,0.0847 1.44074,-0.76274 1.86449,-1.35599 0.0848,-0.1695 0.339,-0.5085 0.42374,-0.67799 0.0848,0.25424 0.0848,0.59324 0.0848,0.84749 0,0.76274 0.0847,1.77974 0.93224,2.11873 0.84749,0.42375 1.61023,-0.1695 2.20348,-0.67799 0.1695,-0.1695 0.5085,-0.42375 0.678,-0.5085 0,0.25425 -0.1695,0.59325 -0.25425,0.8475 -0.25425,0.76274 -0.5085,1.69498 0.0848,2.28823 0.67799,0.67799 1.61023,0.42375 2.28823,0.25425 0.25425,-0.0847 0.84749,-0.25425 0.93224,-0.25425 0,0.1695 -0.339,0.59324 -0.5085,0.84749 -0.42374,0.59325 -1.10174,1.44074 -0.67799,2.28823 0.1695,0.339 0.42375,0.5085 0.76275,0.5085 0.0847,0 0.25424,0 0.33899,-0.0847 0.42375,-0.1695 0.59325,-0.59324 0.42375,-1.01699 0.0847,-0.1695 0.25425,-0.5085 0.42375,-0.678 0.76274,-0.67799 1.52548,-1.69498 0.84749,-2.79672 z"
       id="path975"
       style="fill:#ffffff;fill-opacity:1;stroke-width:2.3;stroke-miterlimit:4;stroke-dasharray:none" />
    <path
       class="st0"
       d="m 164.9633,123.18325 c -0.93224,-0.59325 -2.11873,-0.42375 -2.88148,0.25425 l -2.37298,-1.35599 c 0.84749,-1.69499 1.44074,-3.47473 1.77974,-5.42396 l 3.38997,0.339 0.1695,-1.69499 -3.38997,-0.339 c 0,-0.33899 0.0847,-0.67799 0.0847,-1.01699 0,-0.339 0,-0.67799 -0.0847,-1.01699 l 3.38997,-0.339 -0.1695,-1.69499 -3.38997,0.339 c -0.25425,-1.94923 -0.93225,-3.72897 -1.77974,-5.42396 l 2.37298,-1.35599 c 0.76275,0.678 1.94924,0.8475 2.88148,0.25425 1.18649,-0.67799 1.61024,-2.28823 0.93224,-3.47472 -0.67799,-1.18649 -2.28823,-1.610244 -3.47472,-0.93224 -0.93224,0.59324 -1.44074,1.61023 -1.18649,2.62723 l -2.37298,1.35598 c -1.017,-1.61023 -2.37299,-3.05097 -3.81372,-4.23746 l 2.03398,-2.796734 -1.35599,-1.01699 -2.03398,2.79673 c -0.59325,-0.339 -1.18649,-0.678 -1.77974,-1.017 l 1.35599,-3.13572 -1.52549,-0.678 -1.35599,3.13573 c -1.77974,-0.678 -3.64422,-1.10174 -5.59346,-1.18649 v -2.711984 c 1.017,-0.338997 1.69499,-1.271238 1.69499,-2.372981 0,-1.440739 -1.10174,-2.54248 -2.54248,-2.54248 -1.44074,0 -2.54248,1.101741 -2.54248,2.54248 0,1.101743 0.678,2.033984 1.69499,2.372981 v 2.711984 c -1.94924,0.0847 -3.81372,0.50849 -5.59346,1.18649 l -1.35599,-3.13573 -1.52549,0.678 1.35599,3.13572 c -0.59324,0.339 -1.18649,0.678 -1.77973,1.017 l -2.03399,-2.79673 -1.35599,1.01699 2.03399,2.796734 c -1.52549,1.18649 -2.79673,2.62723 -3.81372,4.23746 l -2.45774,-1.35598 c 0.1695,-1.017 -0.25424,-2.11874 -1.18649,-2.62723 -1.27124,-0.678004 -2.88147,-0.25425 -3.55947,0.93224 -0.67799,1.18649 -0.25425,2.79673 0.93225,3.47472 0.93224,0.59325 2.11873,0.42375 2.88147,-0.25425 l 2.37299,1.35599 c -0.8475,1.69499 -1.44075,3.47473 -1.77974,5.42396 l -3.38998,-0.339 -0.16949,1.69499 3.38997,0.339 c 0,0.339 -0.0847,0.67799 -0.0847,1.01699 0,0.339 0,0.678 0.0847,1.01699 l -3.38997,0.339 0.16949,1.69499 3.38998,-0.339 c 0.25425,1.94923 0.93224,3.72897 1.77974,5.42396 l -2.37299,1.35599 c -0.76274,-0.678 -1.94923,-0.8475 -2.88147,-0.25425 -1.1865,0.67799 -1.61024,2.28823 -0.93225,3.47472 0.678,1.18649 2.28823,1.61024 3.47473,0.93225 0.93224,-0.59325 1.44073,-1.61024 1.18649,-2.62723 l 2.37298,-1.35599 c 1.01699,1.61023 2.37298,3.05097 3.81372,4.23746 l -2.03399,2.79673 1.35599,1.01699 2.03399,-2.79672 c 0.59324,0.33899 1.18649,0.67799 1.77974,1.01699 l -1.35599,3.13572 1.52548,0.678 1.35599,-3.13573 c 1.77974,0.678 3.64422,1.10174 5.59346,1.18649 v 2.71198 c -1.01699,0.339 -1.69499,1.27124 -1.69499,2.37298 0,1.44074 1.10174,2.54249 2.54248,2.54249 1.44074,0 2.54248,-1.10175 2.54248,-2.54249 0,-1.10174 -0.67799,-2.03398 -1.69498,-2.37298 v -2.71198 c 1.94923,-0.0848 3.81372,-0.50849 5.59345,-1.18649 l 1.35599,3.13573 1.52549,-0.678 -1.35599,-3.13572 c 0.59325,-0.339 1.18649,-0.678 1.77974,-1.01699 l 2.03398,2.79672 1.35599,-1.01699 -2.03398,-2.79673 c 1.52548,-1.18649 2.79673,-2.62723 3.81372,-4.23746 l 2.37298,1.35599 c -0.1695,1.01699 0.25425,2.11873 1.18649,2.62723 1.18649,0.67799 2.79673,0.25424 3.47472,-0.93225 0.678,-1.18649 0.42375,-2.79673 -0.76274,-3.47472 z m -10.93267,3.30522 -1.01699,-1.35599 -1.35599,1.017 1.01699,1.35599 c -0.50849,0.33899 -0.93224,0.59324 -1.44073,0.84749 l -0.678,-1.52549 -1.61024,0.59325 0.678,1.52549 c -1.52549,0.59324 -3.22048,0.93224 -4.91546,1.01699 v -1.61024 h -1.69499 v 1.61024 c -1.69499,-0.0848 -3.38997,-0.42375 -4.91546,-1.01699 l 0.67799,-1.52549 -1.52549,-0.678 -0.67799,1.52549 c -0.5085,-0.25425 -1.01699,-0.5085 -1.44074,-0.84749 l 1.01699,-1.35599 -1.35599,-1.01699 -1.10174,1.44073 c -1.27124,-1.10174 -2.45773,-2.28823 -3.38997,-3.72897 l 1.44074,-0.84749 -0.8475,-1.44074 -1.44074,0.84749 c -0.76274,-1.44073 -1.27124,-3.05097 -1.52549,-4.74596 l 1.61024,-0.1695 -0.1695,-1.69499 -1.52548,0.0847 c 0,-0.25424 -0.0847,-0.59324 -0.0847,-0.84749 0,-0.25425 0,-0.59325 0.0847,-0.84749 l 1.61023,0.1695 0.1695,-1.69499 -1.61023,-0.1695 c 0.25424,-1.69499 0.76274,-3.30522 1.52548,-4.74596 l 1.44074,0.84749 0.8475,-1.44074 -1.44074,-0.84749 c 0.93224,-1.44074 2.03398,-2.71198 3.38997,-3.72897 l 1.01699,1.35599 1.35599,-1.017 -1.01699,-1.35599 c 0.5085,-0.33899 0.93224,-0.593244 1.44074,-0.847494 l 0.67799,1.525494 1.52549,-0.678 -0.67799,-1.525484 c 1.52549,-0.59325 3.22047,-0.93225 4.91546,-1.017 v 1.61024 h 1.69499 v -1.61024 c 1.69498,0.0847 3.38997,0.42375 4.91546,1.017 l -0.678,1.525484 1.52549,0.678 0.678,-1.525494 c 0.50849,0.25425 1.01699,0.508504 1.44073,0.847494 l -1.01699,1.35599 1.35599,1.017 1.01699,-1.35599 c 1.27125,1.10174 2.45773,2.28823 3.38998,3.72897 l -1.44074,0.84749 0.84749,1.44074 1.44074,-0.84749 c 0.76275,1.44074 1.27124,3.05097 1.52549,4.74596 l -1.61024,0.1695 0.1695,1.69499 1.61024,-0.1695 c 0,0.25424 0.0847,0.59324 0.0847,0.84749 0,0.25425 0,0.59325 -0.0847,0.84749 l -1.61024,-0.16949 -0.1695,1.69498 1.61024,0.1695 c -0.25425,1.69499 -0.76274,3.30523 -1.52549,4.74596 l -1.44074,-0.84749 -0.84749,1.44074 1.44074,0.84749 c -0.93225,1.44074 -2.03399,2.71198 -3.30523,3.81372 z"
       id="path977"
       style="fill:#ffffff;fill-opacity:1;stroke-width:2.3;stroke-miterlimit:4;stroke-dasharray:none" />
    <path
       class="st0"
       d="m 92.412958,96.347779 c -0.803461,-1.160555 -2.142563,-0.714189 -2.946025,-0.535641 -0.178547,0.08927 -0.357094,0.08927 -0.535641,0.178546 0,-0.178546 0.08927,-0.357094 0.178547,-0.535641 0.26782,-0.892735 0.714188,-2.142564 -0.446367,-2.946024 -1.071282,-0.71419 -2.142564,0.08927 -2.856752,0.624914 -0.08927,0.08927 -0.267821,0.178546 -0.357094,0.267819 0,-0.178546 0,-0.357092 0,-0.446368 0,-0.80346 -0.08927,-2.231837 -1.428376,-2.588929 -1.249829,-0.267822 -1.964017,0.892733 -2.499658,1.606923 -0.08927,0.08927 -0.178547,0.267819 -0.26782,0.357092 -0.08927,-0.178546 -0.08927,-0.267819 -0.178548,-0.446368 -0.357094,-0.80346 -0.803461,-2.053288 -2.231837,-1.964015 -1.339102,0.178546 -1.606923,1.51765 -1.78547,2.32111 0,0.08927 -0.08927,0.267822 -0.08927,0.446368 -0.08927,-0.08927 -0.178547,-0.267822 -0.267821,-0.357095 -0.624914,-0.714187 -1.517649,-1.696196 -2.767478,-1.160555 -1.160556,0.624914 -0.982009,1.964018 -0.892735,2.856752 0,0.178548 0.08927,0.357094 0.08927,0.535641 -0.178547,-0.08927 -0.267821,-0.178547 -0.446367,-0.178547 -0.714187,-0.357094 -2.053291,-1.071282 -3.0353,-0.08927 -0.892733,0.982009 -0.267819,2.142564 0.178549,2.946025 0.08927,0.178548 0.178546,0.446368 0.267819,0.624916 -0.178546,0 -0.446368,0 -0.624914,0 -0.892736,-0.08928 -2.32111,-0.178548 -2.856751,1.160555 -0.178546,0.446366 0,0.982003 0.446368,1.160553 0.446365,0.17855 0.982006,0 1.160555,-0.446365 0.08927,-0.178547 0.714187,-0.08927 1.071282,-0.08927 0.80346,0.08927 1.785469,0.08927 2.32111,-0.714187 0.535641,-0.803462 0.08927,-1.785471 -0.267819,-2.499659 -0.08928,-0.267821 -0.357095,-0.714189 -0.357095,-0.892736 0.178546,0 0.624914,0.267822 0.892733,0.357095 0.71419,0.357093 1.606924,0.803461 2.410386,0.26782 0.803461,-0.535641 0.714188,-1.606923 0.535641,-2.410384 0,-0.267821 -0.08927,-0.714187 -0.08927,-0.892736 0.178547,0.178549 0.446368,0.446368 0.624915,0.624915 0.535641,0.624916 1.249829,1.339103 2.142564,1.071282 0.982008,-0.26782 1.160555,-1.249829 1.339102,-2.053289 0.08927,-0.267822 0.178547,-0.624917 0.178547,-0.803463 0.08927,0.178546 0.26782,0.535641 0.357094,0.803463 0.26782,0.80346 0.714188,1.696196 1.606923,1.785469 0.982009,0.08927 1.51765,-0.803462 1.964017,-1.428377 0.08927,-0.178546 0.357094,-0.535641 0.446368,-0.714187 0.08927,0.267819 0.08927,0.624914 0.08927,0.892736 0,0.80346 0.08927,1.874742 0.982009,2.231837 0.892734,0.446366 1.696196,-0.178548 2.32111,-0.714189 0.178547,-0.178547 0.535641,-0.446366 0.714188,-0.535641 0,0.267821 -0.178547,0.624916 -0.26782,0.892735 -0.267821,0.803461 -0.535641,1.78547 0.08927,2.410386 0.714188,0.714187 1.696197,0.446366 2.410385,0.267819 0.26782,-0.08927 0.892734,-0.267819 0.982008,-0.267819 0,0.178546 -0.357094,0.624914 -0.535641,0.892734 -0.446367,0.624914 -1.160555,1.51765 -0.714188,2.410381 0.178547,0.3571 0.446367,0.53565 0.803462,0.53565 0.08927,0 0.26782,0 0.357093,-0.0893 0.446368,-0.17855 0.624915,-0.62492 0.446368,-1.07129 0.08927,-0.178543 0.26782,-0.535638 0.446367,-0.714184 0.803462,-0.714188 1.606923,-1.78547 0.892735,-2.946025 z"
       id="path975-3"
       style="fill:#ffffff;fill-opacity:1;stroke-width:0.892736" />
    <path
       class="st0"
       d="m 99.95861,109.06058 c -0.98201,-0.62492 -2.231837,-0.44637 -3.035297,0.26782 l -2.49966,-1.42838 c 0.89274,-1.78547 1.51765,-3.66021 1.87475,-5.7135 l 3.570937,0.35709 0.17854,-1.78547 -3.570937,-0.35709 c 0,-0.35709 0.0893,-0.714193 0.0893,-1.071283 0,-0.3571 0,-0.71419 -0.0893,-1.07128 l 3.570937,-0.357098 -0.17854,-1.78547 -3.570937,0.357093 c -0.26782,-2.053291 -0.98201,-3.928034 -1.87475,-5.713503 l 2.49966,-1.428377 c 0.80346,0.714187 2.053287,0.892736 3.035297,0.267822 1.24983,-0.71419 1.6962,-2.410386 0.98201,-3.660214 -0.71419,-1.249828 -2.41039,-1.696196 -3.660217,-0.982009 -0.982,0.624914 -1.51765,1.696196 -1.24982,2.767478 l -2.49966,1.428377 c -1.071285,-1.696196 -2.49966,-3.213846 -4.01731,-4.463674 l 2.142564,-2.946027 -1.428376,-1.071282 -2.142564,2.946027 c -0.624914,-0.357095 -1.249828,-0.71419 -1.874743,-1.071282 l 1.428376,-3.303119 -1.606923,-0.71419 -1.428376,3.303119 C 82.728828,81.117971 80.764811,80.671603 78.71152,80.58233 v -2.856751 c 1.071283,-0.357098 1.785471,-1.339107 1.785471,-2.499662 0,-1.51765 -1.160556,-2.678205 -2.678206,-2.678205 -1.517649,0 -2.678204,1.160555 -2.678204,2.678205 0,1.160555 0.714187,2.142564 1.785469,2.499662 v 2.856751 c -2.05329,0.08927 -4.017307,0.535641 -5.89205,1.249828 l -1.428376,-3.303119 -1.606923,0.71419 1.428377,3.303119 c -0.624914,0.357092 -1.249831,0.714187 -1.874745,1.071282 l -2.142564,-2.946027 -1.428374,1.071282 2.142564,2.946027 c -1.606923,1.249828 -2.946027,2.767478 -4.017309,4.463674 l -2.58893,-1.428377 c 0.178547,-1.071282 -0.267821,-2.231837 -1.24983,-2.767478 -1.339102,-0.714187 -3.035298,-0.267819 -3.749487,0.982009 -0.714188,1.249828 -0.26782,2.946024 0.982008,3.660214 0.982009,0.624914 2.231838,0.446365 3.0353,-0.267822 l 2.499657,1.428377 c -0.892733,1.785469 -1.517648,3.660212 -1.874742,5.713503 l -3.570941,-0.357093 -0.178547,1.78547 3.570941,0.357098 c 0,0.35709 -0.08928,0.71418 -0.08928,1.07128 0,0.35709 0,0.714193 0.08928,1.071283 l -3.570941,0.35709 0.178547,1.78547 3.570941,-0.35709 c 0.267819,2.05329 0.982009,3.92803 1.874742,5.7135 l -2.499657,1.42838 c -0.803462,-0.71419 -2.053291,-0.89274 -3.0353,-0.26782 -1.249828,0.71419 -1.696196,2.41038 -0.982008,3.66021 0.714189,1.24983 2.410385,1.69619 3.660214,0.98201 0.982009,-0.62492 1.51765,-1.6962 1.249828,-2.76748 l 2.499659,-1.42837 c 1.071282,1.69619 2.499659,3.21384 4.017306,4.46367 l -2.142564,2.94602 1.428377,1.07128 2.142564,-2.94602 c 0.624914,0.35709 1.249828,0.71419 1.874742,1.07128 l -1.428374,3.30312 1.606923,0.71419 1.428374,-3.30312 c 1.874744,0.71419 3.838761,1.16055 5.892052,1.24983 v 2.85675 c -1.071282,0.35709 -1.78547,1.3391 -1.78547,2.49966 0,1.51765 1.160555,2.6782 2.678204,2.6782 1.51765,0 2.678205,-1.16055 2.678205,-2.6782 0,-1.16056 -0.714187,-2.14257 -1.78547,-2.49966 v -2.85675 c 2.053291,-0.0893 4.017308,-0.53564 5.892051,-1.24983 l 1.428376,3.30312 1.606923,-0.71419 -1.428376,-3.30312 c 0.624915,-0.35709 1.249829,-0.71419 1.874743,-1.07128 l 2.142564,2.94602 1.428376,-1.07128 -2.142564,-2.94602 c 1.606923,-1.24983 2.946026,-2.76748 4.017308,-4.46367 l 2.499659,1.42837 c -0.17855,1.07128 0.26782,2.23184 1.24983,2.76748 1.249827,0.71418 2.946017,0.26782 3.660207,-0.98201 0.71419,-1.24983 0.44637,-2.94602 -0.80346,-3.66021 z m -11.516279,3.48166 -1.071282,-1.42837 -1.428375,1.07128 1.071282,1.42837 c -0.535641,0.3571 -0.982009,0.62492 -1.51765,0.89274 l -0.714188,-1.60692 -1.696196,0.62491 0.714188,1.60692 c -1.606923,0.62492 -3.392393,0.98201 -5.177863,1.07128 v -1.69619 h -1.78547 v 1.69619 c -1.78547,-0.0893 -3.57094,-0.44636 -5.177863,-1.07128 l 0.714188,-1.60692 -1.606923,-0.71419 -0.714187,1.60692 c -0.535641,-0.26782 -1.071282,-0.53564 -1.51765,-0.89273 l 1.071282,-1.42838 -1.428377,-1.07127 -1.160555,1.51764 c -1.339101,-1.16055 -2.588929,-2.41038 -3.570938,-3.92803 l 1.51765,-0.89273 -0.892736,-1.51765 -1.51765,0.89273 c -0.80346,-1.51765 -1.339101,-3.21384 -1.606923,-4.99931 l 1.696196,-0.17855 -0.178546,-1.78547 -1.606923,0.0893 c 0,-0.267823 -0.08927,-0.624913 -0.08927,-0.892733 0,-0.26783 0,-0.62492 0.08927,-0.89274 l 1.696196,0.17855 0.178546,-1.785473 -1.696196,-0.178547 c 0.267822,-1.785471 0.803463,-3.481668 1.606923,-4.999317 l 1.51765,0.892735 0.892736,-1.51765 -1.51765,-0.892733 c 0.982009,-1.51765 2.142564,-2.856754 3.570938,-3.928036 l 1.071282,1.428377 1.428377,-1.071282 -1.071282,-1.428374 c 0.535641,-0.357095 0.982009,-0.624917 1.51765,-0.892736 l 0.714187,1.606923 1.606923,-0.714187 -0.714188,-1.606923 c 1.606923,-0.624917 3.392393,-0.982009 5.177863,-1.071282 v 1.696196 h 1.78547 v -1.696196 c 1.78547,0.08927 3.57094,0.446365 5.177863,1.071282 l -0.714188,1.606923 1.606923,0.714187 0.714188,-1.606923 c 0.535641,0.267819 1.071282,0.535641 1.517649,0.892736 l -1.071282,1.428374 1.428376,1.071282 1.071282,-1.428377 c 1.339102,1.160558 2.588931,2.410386 3.57094,3.928036 l -1.51765,0.892733 0.892735,1.51765 1.51765,-0.892735 c 0.80346,1.517649 1.3391,3.213846 1.60692,4.999317 l -1.696194,0.178547 0.178547,1.785473 1.696197,-0.17855 c 0,0.26782 0.0893,0.62491 0.0893,0.89274 0,0.26782 0,0.62491 -0.0893,0.892733 l -1.696197,-0.17855 -0.178547,1.78547 1.696194,0.17855 c -0.26782,1.78547 -0.80346,3.48167 -1.60692,4.99932 l -1.51765,-0.89274 -0.892735,1.51765 1.51765,0.89273 c -0.982009,1.51765 -2.142564,2.85676 -3.481667,4.01731 z"
       id="path977-6"
       style="fill:#ffffff;fill-opacity:1;stroke-width:0.892736" />
    <path
       class="st0"
       d="m 115.80462,160.86361 c -0.58219,-0.84093 -1.5525,-0.51749 -2.13469,-0.38812 -0.12937,0.0647 -0.25875,0.0647 -0.38812,0.12938 0,-0.12938 0.0647,-0.25875 0.12937,-0.38813 0.19406,-0.64687 0.5175,-1.5525 -0.32344,-2.13469 -0.77625,-0.5175 -1.5525,0.0647 -2.07,0.45281 -0.0647,0.0647 -0.19406,0.12938 -0.25875,0.19407 0,-0.12938 0,-0.25875 0,-0.32344 0,-0.58219 -0.0647,-1.61719 -1.035,-1.87594 -0.90562,-0.19406 -1.42312,0.64688 -1.81125,1.16438 -0.0647,0.0647 -0.12937,0.19406 -0.19406,0.25875 -0.0647,-0.12938 -0.0647,-0.19407 -0.12938,-0.32344 -0.25875,-0.58219 -0.58218,-1.48781 -1.61718,-1.42313 -0.97032,0.12938 -1.16438,1.09969 -1.29375,1.68188 0,0.0647 -0.0647,0.19406 -0.0647,0.32344 -0.0647,-0.0647 -0.12938,-0.19407 -0.19406,-0.25875 -0.45282,-0.5175 -1.09969,-1.22907 -2.00532,-0.84094 -0.84094,0.45281 -0.71156,1.42312 -0.64687,2.07 0,0.12937 0.0647,0.25875 0.0647,0.38813 -0.12937,-0.0647 -0.19406,-0.12938 -0.32343,-0.12938 -0.5175,-0.25875 -1.48782,-0.77625 -2.199384,-0.0647 -0.64687,0.71156 -0.19406,1.55251 0.12938,2.13469 0.0647,0.12938 0.12937,0.32344 0.19406,0.45282 -0.12938,0 -0.32344,0 -0.45281,0 -0.64688,-0.0647 -1.68188,-0.12938 -2.07001,0.84093 -0.12937,0.32344 0,0.71157 0.32344,0.84094 0.32344,0.12938 0.71156,0 0.84094,-0.32344 0.0647,-0.12937 0.5175,-0.0647 0.77625,-0.0647 0.58219,0.0647 1.293754,0.0647 1.681884,-0.5175 0.38812,-0.58219 0.0647,-1.29376 -0.19407,-1.81125 -0.0647,-0.19407 -0.25875,-0.51751 -0.25875,-0.64688 0.12938,0 0.45282,0.19406 0.64688,0.25875 0.5175,0.25875 1.16437,0.58219 1.74656,0.19406 0.58219,-0.38812 0.5175,-1.16437 0.38813,-1.74656 0,-0.19406 -0.0647,-0.5175 -0.0647,-0.64688 0.12937,0.12938 0.32344,0.32344 0.45281,0.45282 0.38813,0.45281 0.90563,0.97031 1.5525,0.77625 0.71157,-0.19407 0.84094,-0.90563 0.97032,-1.48782 0.0647,-0.19406 0.12937,-0.45281 0.12937,-0.58219 0.0647,0.12938 0.19406,0.38813 0.25875,0.58219 0.19406,0.58219 0.5175,1.22906 1.16438,1.29375 0.71156,0.0647 1.09968,-0.58218 1.42312,-1.035 0.0647,-0.12937 0.25875,-0.38812 0.32344,-0.5175 0.0647,0.19406 0.0647,0.45281 0.0647,0.64688 0,0.58218 0.0647,1.35844 0.71156,1.61718 0.64688,0.32344 1.22906,-0.12937 1.68188,-0.51749 0.12937,-0.12938 0.38812,-0.32344 0.5175,-0.38813 0,0.19406 -0.12938,0.45281 -0.19407,0.64688 -0.19406,0.58218 -0.38812,1.29375 0.0647,1.74656 0.5175,0.5175 1.22906,0.32344 1.74656,0.19406 0.19407,-0.0647 0.64688,-0.19406 0.71157,-0.19406 0,0.12938 -0.25875,0.45281 -0.38813,0.64688 -0.32344,0.45281 -0.84094,1.09968 -0.5175,1.74656 0.12938,0.25875 0.32344,0.38812 0.58219,0.38812 0.0647,0 0.19406,0 0.25875,-0.0647 0.32344,-0.12938 0.45281,-0.45282 0.32344,-0.77625 0.0647,-0.12938 0.19406,-0.38813 0.32344,-0.5175 0.58218,-0.5175 1.16437,-1.29375 0.64687,-2.1347 z"
       id="path975-5"
       style="display:inline;fill:#ffffff;fill-opacity:1;stroke-width:0.646874" />
    <path
       class="st0"
       d="m 122.72619,171.40769 c -0.71157,-0.45282 -1.61719,-0.32344 -2.19938,0.19406 l -1.81125,-1.035 c 0.64687,-1.29375 1.09969,-2.65219 1.35844,-4.14001 l 2.5875,0.25876 0.12937,-1.29376 -2.5875,-0.25875 c 0,-0.25875 0.0647,-0.5175 0.0647,-0.77625 0,-0.25875 0,-0.5175 -0.0647,-0.77625 l 2.5875,-0.25875 -0.12937,-1.29375 -2.5875,0.25875 c -0.19406,-1.48781 -0.71157,-2.84625 -1.35844,-4.14 l 1.81125,-1.035 c 0.58219,0.5175 1.48781,0.64687 2.19938,0.19406 0.90562,-0.5175 1.22906,-1.74656 0.71156,-2.65219 -0.5175,-0.90562 -1.74657,-1.22906 -2.65219,-0.71156 -0.71156,0.45281 -1.09969,1.22906 -0.90562,2.00531 l -1.81126,1.035 c -0.77625,-1.22906 -1.81125,-2.32875 -2.91093,-3.23437 l 1.55249,-2.13469 -1.03499,-0.77625 -1.55251,2.13469 c -0.45281,-0.25875 -0.90562,-0.5175 -1.35843,-0.77625 l 1.035,-2.39344 -1.16438,-0.5175 -1.035,2.39344 c -1.35844,-0.5175 -2.78156,-0.84094 -4.26938,-0.90563 v -2.07 c 0.77625,-0.25875 1.29375,-0.97031 1.29375,-1.81125 0,-1.09969 -0.84093,-1.94063 -1.94062,-1.94063 -1.09969,0 -1.94063,0.84094 -1.94063,1.94063 0,0.84094 0.5175,1.5525 1.29375,1.81125 v 2.07 c -1.48781,0.0647 -2.91094,0.38813 -4.26937,0.90563 l -1.035,-2.39344 -1.164384,0.5175 1.035004,2.39344 c -0.45281,0.25875 -0.905624,0.5175 -1.358444,0.77625 l -1.5525,-2.13469 -1.035,0.77625 1.5525,2.13469 c -1.16438,0.90562 -2.13469,2.00531 -2.91094,3.23437 l -1.87594,-1.035 c 0.12938,-0.77625 -0.19406,-1.61719 -0.90562,-2.00531 -0.970316,-0.5175 -2.19938,-0.19406 -2.71688,0.71156 -0.517501,0.90563 -0.194063,2.13469 0.711563,2.65219 0.711563,0.45281 1.617187,0.32344 2.199377,-0.19406 l 1.81125,1.035 c -0.64688,1.29375 -1.09969,2.65219 -1.35844,4.14 l -2.5875,-0.25875 -0.129374,1.29375 2.587504,0.25875 c 0,0.25875 -0.0647,0.5175 -0.0647,0.77625 0,0.25875 0,0.5175 0.0647,0.77625 l -2.587504,0.25875 0.129374,1.29376 2.5875,-0.25876 c 0.19406,1.48782 0.71156,2.84626 1.35844,4.14001 l -1.81125,1.035 c -0.58219,-0.5175 -1.487814,-0.64688 -2.199377,-0.19406 -0.905626,0.51749 -1.229064,1.74656 -0.711563,2.65219 0.5175,0.90562 1.746564,1.22906 2.65219,0.71156 0.71156,-0.45282 1.09969,-1.22907 0.90562,-2.00532 l 1.81126,-1.035 c 0.77625,1.22906 1.81125,2.32876 2.91094,3.23438 l -1.55251,2.13469 1.035,0.77625 1.55251,-2.13469 c 0.45281,0.25875 0.905624,0.5175 1.358444,0.77625 l -1.035004,2.39344 1.164374,0.5175 1.035,-2.39344 c 1.35844,0.5175 2.78157,0.84094 4.26938,0.90563 v 2.07 c -0.77625,0.25875 -1.29375,0.97031 -1.29375,1.81125 0,1.09969 0.84094,1.94063 1.94062,1.94063 1.09969,0 1.94063,-0.84094 1.94063,-1.94063 0,-0.84094 -0.5175,-1.5525 -1.29375,-1.81125 v -2.07 c 1.48781,-0.0647 2.91094,-0.38813 4.26938,-0.90563 l 1.035,2.39344 1.16437,-0.5175 -1.035,-2.39344 c 0.45281,-0.25875 0.90563,-0.5175 1.35844,-0.77625 l 1.5525,2.13469 1.035,-0.77625 -1.5525,-2.13469 c 1.16438,-0.90562 2.13469,-2.00532 2.91094,-3.23438 l 1.81125,1.035 c -0.12938,0.77625 0.19406,1.61719 0.90562,2.00532 0.90563,0.5175 2.13469,0.19406 2.6522,-0.71156 0.51749,-0.90563 0.32343,-2.1347 -0.58219,-2.65219 z m -8.3447,2.52281 -0.77625,-1.035 -1.035,0.77625 0.77625,1.035 c -0.38812,0.25875 -0.71156,0.45281 -1.09968,0.64688 l -0.5175,-1.16438 -1.22907,0.45281 0.5175,1.16438 c -1.16437,0.45281 -2.45812,0.71156 -3.75187,0.77625 v -1.22906 h -1.29375 v 1.22906 c -1.29375,-0.0647 -2.58751,-0.32344 -3.75188,-0.77625 l 0.5175,-1.16438 -1.16438,-0.5175 -0.5175,1.16438 c -0.38812,-0.19407 -0.77625,-0.38813 -1.099684,-0.64688 l 0.776254,-1.035 -1.035004,-0.77625 -0.84094,1.09969 c -0.97032,-0.84094 -1.87594,-1.74657 -2.58751,-2.84625 l 1.09969,-0.64688 -0.64687,-1.09969 -1.09969,0.64688 c -0.58219,-1.09969 -0.97031,-2.32875 -1.16438,-3.6225 l 1.22907,-0.12938 -0.12938,-1.29375 -1.16438,0.0647 c 0,-0.19406 -0.0647,-0.45281 -0.0647,-0.64688 0,-0.19406 0,-0.45281 0.0647,-0.64687 l 1.22907,0.12937 0.12937,-1.29375 -1.22906,-0.12937 c 0.19406,-1.29375 0.58219,-2.52282 1.16438,-3.6225 l 1.09968,0.64687 0.64688,-1.09969 -1.09969,-0.64687 c 0.71156,-1.09969 1.5525,-2.07 2.58751,-2.84625 l 0.77625,1.03499 1.035004,-0.77625 -0.776254,-1.035 c 0.388124,-0.25874 0.711564,-0.45281 1.099684,-0.64687 l 0.5175,1.16438 1.16438,-0.51751 -0.5175,-1.16437 c 1.16437,-0.45281 2.45813,-0.71156 3.75188,-0.77625 v 1.22906 h 1.29375 v -1.22906 c 1.29375,0.0647 2.5875,0.32344 3.75187,0.77625 l -0.5175,1.16437 1.16438,0.51751 0.5175,-1.16438 c 0.38812,0.19406 0.77625,0.38813 1.09969,0.64687 l -0.77625,1.035 1.035,0.77625 0.77625,-1.03499 c 0.97031,0.84093 1.87594,1.74656 2.5875,2.84625 l -1.09969,0.64687 0.64688,1.09969 1.09968,-0.64687 c 0.58219,1.09968 0.97032,2.32875 1.16438,3.6225 l -1.22907,0.12937 0.12938,1.29375 1.22906,-0.12937 c 0,0.19406 0.0647,0.45281 0.0647,0.64687 0,0.19407 0,0.45282 -0.0647,0.64688 l -1.22906,-0.12938 -0.12938,1.29375 1.22907,0.12938 c -0.19406,1.29375 -0.58219,2.52282 -1.16438,3.6225 l -1.09968,-0.64687 -0.64688,1.09968 1.09969,0.64688 c -0.71156,1.09969 -1.5525,2.07 -2.52282,2.91094 z"
       id="path977-4"
       style="display:inline;fill:#ffffff;fill-opacity:1;stroke-width:0.646874" />
    <circle
       id="path7886"
       style="fill:#004e66;fill-opacity:1;stroke:#000000;stroke-width:0.264583"
       cx="185.00491"
       cy="159.54517"
       r="0.048727915" />
  </g>
  <g
     inkscape:groupmode="layer"
     id="g3261"
     inkscape:label="Single Covid"
     style="display:none"
     transform="translate(-40.134398,-58.088193)">
    <g
       id="g3271"
       transform="matrix(1.4026627,0,0,1.4026627,27.974532,-8.3671776)">
      <path
         class="st0"
         d="m 91.363188,95.049477 c -0.803461,-1.160555 -2.142564,-0.71419 -2.946025,-0.535641 -0.178547,0.08927 -0.357094,0.08927 -0.535641,0.178546 0,-0.178546 0.08927,-0.357095 0.178547,-0.535641 0.26782,-0.892736 0.714188,-2.142564 -0.446368,-2.946024 -1.071281,-0.71419 -2.142564,0.08927 -2.856751,0.624914 -0.08927,0.08927 -0.267821,0.178546 -0.357094,0.267819 0,-0.178546 0,-0.357092 0,-0.446368 0,-0.80346 -0.08927,-2.231837 -1.428376,-2.588929 -1.249829,-0.267822 -1.964017,0.892733 -2.499658,1.606923 -0.08927,0.08927 -0.178547,0.267819 -0.267821,0.357092 -0.08927,-0.178546 -0.08927,-0.267819 -0.178547,-0.446368 -0.357094,-0.80346 -0.803461,-2.053288 -2.231837,-1.964015 -1.339103,0.178546 -1.606923,1.51765 -1.78547,2.32111 0,0.08927 -0.08927,0.267822 -0.08927,0.446368 -0.08927,-0.08927 -0.178547,-0.267822 -0.26782,-0.357095 -0.624914,-0.714187 -1.51765,-1.696196 -2.767479,-1.160555 -1.160555,0.624914 -0.982008,1.964018 -0.892734,2.856751 0,0.178549 0.08927,0.357095 0.08927,0.535641 -0.178547,-0.08927 -0.267821,-0.178546 -0.446367,-0.178546 -0.714187,-0.357095 -2.053291,-1.071282 -3.0353,-0.08927 -0.892733,0.982009 -0.267819,2.142564 0.178549,2.946025 0.08927,0.178547 0.178546,0.446367 0.267819,0.624914 -0.178546,0 -0.446368,0 -0.624914,0 -0.892736,-0.08927 -2.32111,-0.178547 -2.856752,1.160556 -0.178546,0.446367 0,0.982008 0.446368,1.160555 0.446366,0.178547 0.982007,0 1.160556,-0.446367 0.08927,-0.178547 0.714187,-0.08927 1.071282,-0.08927 0.80346,0.08927 1.785469,0.08927 2.32111,-0.714188 0.535641,-0.803461 0.08927,-1.78547 -0.267819,-2.499657 -0.08928,-0.267822 -0.357095,-0.71419 -0.357095,-0.892736 0.178546,0 0.624914,0.267822 0.892733,0.357095 0.71419,0.357092 1.606924,0.80346 2.410386,0.267819 0.803461,-0.535641 0.714187,-1.606923 0.535641,-2.410383 0,-0.267822 -0.08927,-0.714187 -0.08927,-0.892736 0.178547,0.178549 0.446367,0.446368 0.624915,0.624914 0.53564,0.624917 1.249828,1.339104 2.142563,1.071282 0.982009,-0.267819 1.160556,-1.249828 1.339103,-2.053288 0.08927,-0.267822 0.178547,-0.624917 0.178547,-0.803463 0.08927,0.178546 0.26782,0.535641 0.357094,0.803463 0.26782,0.80346 0.714188,1.696196 1.606922,1.785469 0.982009,0.08927 1.51765,-0.803463 1.964018,-1.428377 0.08927,-0.178546 0.357094,-0.535641 0.446367,-0.714187 0.08927,0.267819 0.08927,0.624914 0.08927,0.892736 0,0.80346 0.08927,1.874742 0.982008,2.231837 0.892735,0.446365 1.696197,-0.178549 2.321111,-0.71419 0.178547,-0.178546 0.535641,-0.446365 0.714188,-0.535641 0,0.267822 -0.178547,0.624917 -0.267821,0.892736 -0.26782,0.80346 -0.535641,1.785469 0.08927,2.410384 0.714188,0.714188 1.696196,0.446368 2.410384,0.267821 0.267821,-0.08927 0.892735,-0.267821 0.982009,-0.267821 0,0.178548 -0.357094,0.624915 -0.535641,0.892735 -0.446368,0.624915 -1.160556,1.51765 -0.714188,2.410385 0.178547,0.357094 0.446367,0.53564 0.803461,0.53564 0.08927,0 0.267821,0 0.357094,-0.08927 0.446368,-0.178547 0.624915,-0.624914 0.446368,-1.071282 0.08927,-0.178547 0.26782,-0.535641 0.446367,-0.714188 0.803462,-0.714188 1.606923,-1.785469 0.892735,-2.946024 z"
         id="path3251"
         style="fill:#b33312;fill-opacity:1;stroke-width:0.892736" />
      <path
         class="st0"
         d="m 100.91545,109.60106 c -0.982007,-0.62492 -2.231836,-0.44637 -3.035297,0.26782 l -2.499658,-1.42838 c 0.892735,-1.78547 1.51765,-3.66021 1.874744,-5.7135 l 3.570941,0.35709 0.17854,-1.78547 -3.570934,-0.35709 c 0,-0.3571 0.08927,-0.71419 0.08927,-1.071286 0,-0.357093 0,-0.714187 -0.08927,-1.071281 l 3.570934,-0.357094 -0.17854,-1.78547 -3.570941,0.357094 C 96.987418,94.960201 96.27323,93.085459 95.380495,91.29999 l 2.499658,-1.428377 c 0.803461,0.714187 2.05329,0.892736 3.035297,0.267822 1.24983,-0.71419 1.6962,-2.410386 0.98201,-3.660214 -0.71419,-1.249828 -2.410384,-1.696196 -3.660213,-0.982009 -0.982008,0.624914 -1.517649,1.696196 -1.249829,2.767478 l -2.499658,1.428377 c -1.071282,-1.696196 -2.499658,-3.213846 -4.017307,-4.463674 l 2.142564,-2.946027 -1.428376,-1.071282 -2.142564,2.946027 c -0.624914,-0.357095 -1.249829,-0.71419 -1.874743,-1.071282 l 1.428376,-3.30312 -1.606923,-0.714189 -1.428376,3.303119 c -1.874743,-0.714187 -3.83876,-1.160555 -5.892051,-1.249828 v -2.856752 c 1.071282,-0.357097 1.78547,-1.339106 1.78547,-2.499661 0,-1.51765 -1.160555,-2.678205 -2.678205,-2.678205 -1.517649,0 -2.678205,1.160555 -2.678205,2.678205 0,1.160555 0.714188,2.142564 1.78547,2.499661 v 2.856752 c -2.05329,0.08927 -4.017307,0.535641 -5.89205,1.249828 l -1.428376,-3.303119 -1.606923,0.714189 1.428377,3.30312 c -0.624914,0.357092 -1.249831,0.714187 -1.874745,1.071282 l -2.142564,-2.946027 -1.428375,1.071282 2.142564,2.946027 c -1.606923,1.249828 -2.946026,2.767478 -4.017308,4.463674 L 60.47456,88.26469 c 0.178546,-1.071282 -0.267822,-2.231837 -1.249831,-2.767478 -1.339101,-0.714187 -3.035297,-0.267819 -3.749487,0.982009 -0.714187,1.249828 -0.267819,2.946024 0.982009,3.660214 0.982009,0.624914 2.231837,0.446365 3.0353,-0.267822 l 2.499657,1.428377 c -0.892734,1.785469 -1.517648,3.660211 -1.874743,5.713503 l -3.570941,-0.357094 -0.178546,1.78547 3.570941,0.357094 c 0,0.357094 -0.08928,0.714188 -0.08928,1.071281 0,0.357096 0,0.714186 0.08928,1.071286 l -3.570941,0.35709 0.178546,1.78547 3.570941,-0.35709 c 0.267819,2.05329 0.982009,3.92803 1.874743,5.7135 l -2.499657,1.42838 c -0.803463,-0.71419 -2.053291,-0.89274 -3.0353,-0.26782 -1.249828,0.71418 -1.696196,2.41038 -0.982009,3.66021 0.71419,1.24983 2.410386,1.69619 3.660214,0.98201 0.982009,-0.62492 1.51765,-1.6962 1.249828,-2.76748 l 2.499659,-1.42838 c 1.071282,1.6962 2.499659,3.21385 4.017307,4.46368 l -2.142564,2.94602 1.428377,1.07128 2.142564,-2.94602 c 0.624914,0.35709 1.249828,0.71419 1.874742,1.07128 l -1.428374,3.30312 1.606923,0.71419 1.428374,-3.30312 c 1.874744,0.71419 3.838761,1.16055 5.892051,1.24983 v 2.85675 c -1.071282,0.35709 -1.78547,1.3391 -1.78547,2.49966 0,1.51765 1.160556,2.6782 2.678205,2.6782 1.51765,0 2.678205,-1.16055 2.678205,-2.6782 0,-1.16056 -0.714188,-2.14257 -1.78547,-2.49966 v -2.85675 c 2.053291,-0.0893 4.017308,-0.53564 5.892051,-1.24983 l 1.428376,3.30312 1.606923,-0.71419 -1.428376,-3.30312 c 0.624914,-0.35709 1.249829,-0.71419 1.874743,-1.07128 l 2.142564,2.94602 1.428376,-1.07128 -2.142564,-2.94602 c 1.606923,-1.24983 2.946025,-2.76748 4.017307,-4.46368 l 2.499658,1.42838 c -0.178547,1.07128 0.267821,2.23184 1.249829,2.76748 1.249829,0.71418 2.94602,0.26782 3.66021,-0.98201 0.71419,-1.24983 0.44637,-2.94603 -0.80346,-3.66021 z m -11.516279,3.48166 -1.071282,-1.42837 -1.428376,1.07128 1.071282,1.42837 c -0.535641,0.3571 -0.982008,0.62492 -1.517649,0.89274 l -0.714188,-1.60692 -1.696196,0.62491 0.714188,1.60692 c -1.606923,0.62492 -3.392393,0.98201 -5.177863,1.07128 v -1.69619 h -1.78547 v 1.69619 c -1.78547,-0.0893 -3.57094,-0.44636 -5.177863,-1.07128 l 0.714188,-1.60692 -1.606923,-0.71419 -0.714187,1.60692 c -0.535641,-0.26782 -1.071282,-0.53564 -1.51765,-0.89273 l 1.071282,-1.42838 -1.428377,-1.07128 -1.160555,1.51765 c -1.339101,-1.16055 -2.58893,-2.41038 -3.570939,-3.92803 l 1.51765,-0.89274 -0.892736,-1.51765 -1.517649,0.89274 c -0.803461,-1.51765 -1.339102,-3.21385 -1.606924,-4.99932 l 1.696197,-0.17854 -0.178547,-1.78547 -1.606923,0.0893 c 0,-0.26782 -0.08927,-0.62492 -0.08927,-0.892736 0,-0.26782 0,-0.624914 0.08927,-0.892734 l 1.696197,0.178547 0.178546,-1.78547 -1.696196,-0.178547 c 0.267821,-1.785471 0.803462,-3.481667 1.606923,-4.999317 l 1.51765,0.892736 0.892735,-1.51765 -1.51765,-0.892733 c 0.982009,-1.51765 2.142565,-2.856754 3.570939,-3.928036 l 1.071282,1.428377 1.428377,-1.071282 -1.071282,-1.428374 c 0.535641,-0.357095 0.982009,-0.624917 1.51765,-0.892736 l 0.714187,1.606923 1.606923,-0.714187 -0.714188,-1.606924 c 1.606923,-0.624916 3.392393,-0.982008 5.177863,-1.071282 v 1.696197 h 1.78547 v -1.696197 c 1.78547,0.08927 3.57094,0.446366 5.177863,1.071282 l -0.714188,1.606924 1.606922,0.714187 0.714188,-1.606923 c 0.535641,0.267819 1.071282,0.535641 1.51765,0.892736 l -1.071282,1.428374 1.428376,1.071282 1.071282,-1.428377 c 1.339102,1.160558 2.588931,2.410386 3.57094,3.928036 l -1.51765,0.892733 0.892735,1.51765 1.517649,-0.892736 c 0.803462,1.51765 1.339103,3.213846 1.606923,4.999317 l -1.696196,0.178547 0.178547,1.78547 1.696196,-0.178547 c 0,0.26782 0.08927,0.624914 0.08927,0.892734 0,0.267816 0,0.624916 -0.08927,0.892736 l -1.696196,-0.17855 -0.178547,1.78547 1.696196,0.17855 c -0.26782,1.78547 -0.803461,3.48167 -1.606923,4.99932 l -1.517649,-0.89274 -0.892735,1.51765 1.51765,0.89273 c -0.982009,1.51765 -2.142564,2.85676 -3.481667,4.01731 z"
         id="path3253"
         style="fill:#b33312;fill-opacity:1;stroke-width:0.892736" />
    </g>
    <path
       class="st0"
       d="m 121.21305,153.11008 c -0.55463,-0.80113 -1.47901,-0.493 -2.03364,-0.36975 -0.12325,0.0616 -0.2465,0.0616 -0.36975,0.12325 0,-0.12325 0.0616,-0.2465 0.12325,-0.36975 0.18488,-0.61626 0.493,-1.47902 -0.30813,-2.03364 -0.7395,-0.49301 -1.47901,0.0616 -1.97201,0.43137 -0.0616,0.0616 -0.18488,0.12325 -0.2465,0.18488 0,-0.12325 0,-0.2465 0,-0.30812 0,-0.55463 -0.0616,-1.54064 -0.98601,-1.78714 -0.86275,-0.18488 -1.35575,0.61625 -1.72551,1.10925 -0.0616,0.0616 -0.12325,0.18488 -0.18487,0.24651 -0.0616,-0.12325 -0.0616,-0.18488 -0.12325,-0.30813 -0.24651,-0.55463 -0.55463,-1.41738 -1.54064,-1.35576 -0.92438,0.12325 -1.10926,1.04763 -1.23251,1.60226 0,0.0616 -0.0616,0.18488 -0.0616,0.30813 -0.0616,-0.0616 -0.12325,-0.18488 -0.18488,-0.2465 -0.43138,-0.49301 -1.04763,-1.17089 -1.91038,-0.80113 -0.80113,0.43137 -0.67788,1.35575 -0.61626,1.97201 0,0.12325 0.0616,0.2465 0.0616,0.36975 -0.12325,-0.0616 -0.18488,-0.12325 -0.30813,-0.12325 -0.493,-0.2465 -1.41738,-0.73951 -2.09526,-0.0616 -0.61626,0.67787 -0.18488,1.479 0.12325,2.03363 0.0616,0.12325 0.12325,0.30813 0.18487,0.43138 -0.12325,0 -0.30812,0 -0.43137,0 -0.61626,-0.0616 -1.60226,-0.12325 -1.97201,0.80113 -0.12326,0.30813 0,0.67788 0.30812,0.80113 0.30813,0.12325 0.67788,0 0.80113,-0.30813 0.0616,-0.12325 0.49301,-0.0616 0.73951,-0.0616 0.55462,0.0616 1.2325,0.0616 1.60226,-0.493 0.36975,-0.55463 0.0616,-1.23251 -0.18488,-1.72552 -0.0616,-0.18487 -0.2465,-0.493 -0.2465,-0.61625 0.12325,0 0.43138,0.18488 0.61625,0.2465 0.49301,0.2465 1.10926,0.55463 1.66389,0.18488 0.55463,-0.36975 0.493,-1.10926 0.36975,-1.66389 0,-0.18487 -0.0616,-0.493 -0.0616,-0.61625 0.12325,0.12325 0.30813,0.30812 0.43138,0.43138 0.36975,0.43138 0.86276,0.92438 1.47901,0.7395 0.67788,-0.18487 0.80113,-0.86276 0.92438,-1.41738 0.0616,-0.18488 0.12325,-0.43138 0.12325,-0.55463 0.0616,0.12325 0.18488,0.36975 0.2465,0.55463 0.18488,0.55462 0.49301,1.17088 1.10926,1.23251 0.67788,0.0616 1.04763,-0.55463 1.35576,-0.98601 0.0616,-0.12325 0.2465,-0.36975 0.30813,-0.493 0.0616,0.18487 0.0616,0.43138 0.0616,0.61625 0,0.55463 0.0616,1.29413 0.67788,1.54063 0.61625,0.30813 1.17088,-0.12325 1.60226,-0.493 0.12325,-0.12325 0.36975,-0.30812 0.493,-0.36975 0,0.18488 -0.12325,0.43138 -0.18487,0.61625 -0.18488,0.55463 -0.36976,1.23251 0.0616,1.66389 0.49301,0.493 1.17088,0.30812 1.66389,0.18488 0.18487,-0.0616 0.61625,-0.18488 0.67788,-0.18488 0,0.12325 -0.24651,0.43137 -0.36976,0.61625 -0.30812,0.43138 -0.80113,1.04763 -0.493,1.66389 0.12325,0.2465 0.30813,0.36975 0.55463,0.36975 0.0616,0 0.18488,0 0.2465,-0.0616 0.30813,-0.12325 0.43138,-0.43137 0.30813,-0.7395 0.0616,-0.12325 0.18487,-0.36975 0.30812,-0.493 0.55463,-0.49301 1.10926,-1.23251 0.61626,-2.03364 z"
       id="path3255"
       style="fill:#b33312;fill-opacity:1;stroke-width:0.616254" />
  </g>
  <g
     inkscape:groupmode="layer"
     id="layer4"
     inkscape:label="Chatbubble"
     style="display:inline;opacity:1"
     transform="translate(-40.134398,-58.088193)">
    <path
       style="display:inline;fill:#f2f2f3;fill-opacity:1;stroke:#f2f2f3;stroke-width:0.665;stroke-linecap:butt;stroke-linejoin:round;stroke-miterlimit:4;stroke-dasharray:none;stroke-dashoffset:0;stroke-opacity:1;filter:url(#filter4243)"
       d="m 66.066984,88.496693 h 79.972226 v 70.956097 h -9.11142 -42.642293 l -9.665143,9.66515 v -9.68361 h -18.5535 z"
       id="path6357-5"
       sodipodi:nodetypes="ccccccccc" />
    <g
       id="g4371">
      <g
         id="g4295">
        <g
           id="g4263">
          <rect
             style="opacity:0.993;fill:#b33312;fill-opacity:1;stroke:none;stroke-width:0.112601;stroke-linecap:butt;stroke-linejoin:miter;stroke-miterlimit:3.9;stroke-dasharray:none;stroke-opacity:1;paint-order:normal"
             id="rect1955"
             width="3.7200344"
             height="5.2449894"
             x="88.082222"
             y="133.15382" />
          <rect
             style="opacity:0.993;fill:#b33312;fill-opacity:1;stroke:none;stroke-width:0.150359;stroke-linecap:butt;stroke-linejoin:miter;stroke-miterlimit:3.9;stroke-dasharray:none;stroke-opacity:1;paint-order:normal"
             id="rect1955-2"
             width="3.6744711"
             height="9.4684105"
             x="83.878052"
             y="128.9304" />
          <rect
             style="opacity:0.993;fill:#b33312;fill-opacity:1;stroke:none;stroke-width:0.135721;stroke-linecap:butt;stroke-linejoin:miter;stroke-miterlimit:3.9;stroke-dasharray:none;stroke-opacity:1;paint-order:normal"
             id="rect1955-06-0"
             width="3.6921363"
             height="7.6775384"
             x="79.656212"
             y="130.72127" />
          <rect
             style="opacity:0.993;fill:#b33312;fill-opacity:1;stroke:none;stroke-width:0.14192;stroke-linecap:butt;stroke-linejoin:miter;stroke-miterlimit:3.9;stroke-dasharray:none;stroke-opacity:1;paint-order:normal"
             id="rect1955-06-2"
             width="3.6597948"
             height="8.4692087"
             x="129.63716"
             y="129.92961" />
          <rect
             style="opacity:0.993;fill:#b33312;fill-opacity:1;stroke:none;stroke-width:0.198379;stroke-linecap:butt;stroke-linejoin:miter;stroke-miterlimit:3.9;stroke-dasharray:none;stroke-opacity:1;paint-order:normal"
             id="rect1955-06-3"
             width="3.6153288"
             height="16.751368"
             x="125.49214"
             y="121.64745" />
          <rect
             style="opacity:0.993;fill:#b33312;fill-opacity:1;stroke:none;stroke-width:0.116839;stroke-linecap:butt;stroke-linejoin:miter;stroke-miterlimit:3.9;stroke-dasharray:none;stroke-opacity:1;paint-order:normal"
             id="rect1955-06-5"
             width="3.6775866"
             height="5.7123108"
             x="133.82666"
             y="132.68651" />
          <rect
             style="opacity:0.993;fill:#b33312;fill-opacity:1;stroke:none;stroke-width:0.0789761;stroke-linecap:butt;stroke-linejoin:miter;stroke-miterlimit:3.9;stroke-dasharray:none;stroke-opacity:1;paint-order:normal"
             id="rect1955-06-9"
             width="3.7606099"
             height="2.552352"
             x="71.151192"
             y="135.84647" />
          <rect
             style="opacity:0.993;fill:#b33312;fill-opacity:1;stroke:none;stroke-width:0.141615;stroke-linecap:butt;stroke-linejoin:miter;stroke-miterlimit:3.9;stroke-dasharray:none;stroke-opacity:1;paint-order:normal"
             id="rect1955-06-22"
             width="3.6850233"
             height="8.3750114"
             x="75.441498"
             y="130.0238" />
          <rect
             style="display:inline;opacity:0.993;fill:#b33312;fill-opacity:1;stroke:none;stroke-width:0.168528;stroke-linecap:butt;stroke-linejoin:miter;stroke-miterlimit:3.9;stroke-dasharray:none;stroke-opacity:1;paint-order:normal"
             id="rect1955-06-3-7"
             width="3.6153288"
             height="12.089289"
             x="108.91205"
             y="126.30954" />
          <rect
             style="display:inline;opacity:0.993;fill:#b33312;fill-opacity:1;stroke:none;stroke-width:0.0885038;stroke-linecap:butt;stroke-linejoin:miter;stroke-miterlimit:3.9;stroke-dasharray:none;stroke-opacity:1;paint-order:normal"
             id="rect1955-06-3-4"
             width="3.6153288"
             height="3.3341236"
             x="117.2021"
             y="135.0647" />
          <rect
             style="display:inline;opacity:0.993;fill:#b33312;fill-opacity:1;stroke:none;stroke-width:0.138635;stroke-linecap:butt;stroke-linejoin:miter;stroke-miterlimit:3.9;stroke-dasharray:none;stroke-opacity:1;paint-order:normal"
             id="rect1955-06-3-43"
             width="3.6153288"
             height="8.180994"
             x="100.622"
             y="130.21783" />
          <rect
             style="display:inline;opacity:0.993;fill:#b33312;fill-opacity:1;stroke:none;stroke-width:0.139548;stroke-linecap:butt;stroke-linejoin:miter;stroke-miterlimit:3.9;stroke-dasharray:none;stroke-opacity:1;paint-order:normal"
             id="rect1955-06-3-0"
             width="3.6153288"
             height="8.2890501"
             x="113.05708"
             y="130.10977" />
          <rect
             style="display:inline;opacity:0.993;fill:#b33312;fill-opacity:1;stroke:none;stroke-width:0.199372;stroke-linecap:butt;stroke-linejoin:miter;stroke-miterlimit:3.9;stroke-dasharray:none;stroke-opacity:1;paint-order:normal"
             id="rect1955-06-3-78"
             width="3.6153288"
             height="16.919455"
             x="92.33194"
             y="121.47936" />
          <rect
             style="display:inline;opacity:0.993;fill:#b33312;fill-opacity:1;stroke:none;stroke-width:0.161744;stroke-linecap:butt;stroke-linejoin:miter;stroke-miterlimit:3.9;stroke-dasharray:none;stroke-opacity:1;paint-order:normal"
             id="rect1955-06-3-6"
             width="3.6153288"
             height="11.135575"
             x="96.476974"
             y="127.26324" />
          <rect
             style="display:inline;opacity:0.993;fill:#b33312;fill-opacity:1;stroke:none;stroke-width:0.161193;stroke-linecap:butt;stroke-linejoin:miter;stroke-miterlimit:3.9;stroke-dasharray:none;stroke-opacity:1;paint-order:normal"
             id="rect1955-06-3-8"
             width="3.6153288"
             height="11.059883"
             x="121.34712"
             y="127.33894" />
          <rect
             style="display:inline;opacity:0.993;fill:#b33312;fill-opacity:1;stroke:none;stroke-width:0.210942;stroke-linecap:butt;stroke-linejoin:miter;stroke-miterlimit:3.9;stroke-dasharray:none;stroke-opacity:1;paint-order:normal"
             id="rect1955-06-3-84"
             width="3.6153288"
             height="18.940159"
             x="104.76701"
             y="119.45866" />
        </g>
        <path
           style="fill:none;stroke:#000000;stroke-width:0.365;stroke-linecap:butt;stroke-linejoin:miter;stroke-miterlimit:4;stroke-dasharray:none;stroke-opacity:1;marker-start:url(#marker7202);marker-end:url(#marker7108)"
           d="m 70.132637,115.85576 v 23.52128 h 72.585073"
           id="path7460" />
      </g>
      <g
         id="g8025"
         transform="translate(-5.9568199,16.022514)">
        <rect
           style="display:inline;opacity:0.993;fill:#004e66;fill-opacity:1;stroke:none;stroke-width:0.355502;stroke-miterlimit:4;stroke-dasharray:none;stroke-opacity:1"
           id="rect1058-2-10-4-7-6-7"
           width="74.231003"
           height="4.0559316"
           x="75.162674"
           y="127.16344" />
        <rect
           style="display:inline;opacity:0.993;fill:#004e66;fill-opacity:1;stroke:none;stroke-width:0.355502;stroke-miterlimit:4;stroke-dasharray:none;stroke-opacity:1"
           id="rect1058-2-10-4-7-6-7-3"
           width="74.23101"
           height="4.0559316"
           x="75.162674"
           y="134.23656" />
      </g>
      <g
         id="g4241"
         transform="translate(0.53680193)">
        <rect
           style="display:inline;opacity:0.993;fill:#004e66;fill-opacity:1;stroke:none;stroke-width:0.355502;stroke-miterlimit:4;stroke-dasharray:none;stroke-opacity:1"
           id="rect1058-2-10-4-7-6-7-1"
           width="74.23101"
           height="4.0559316"
           x="68.669052"
           y="101.32686" />
        <rect
           style="display:inline;opacity:0.993;fill:#004e66;fill-opacity:1;stroke:none;stroke-width:0.355502;stroke-miterlimit:4;stroke-dasharray:none;stroke-opacity:1"
           id="rect1058-2-10-4-7-6-7-3-4"
           width="74.231018"
           height="4.0559316"
           x="68.669052"
           y="108.19839" />
        <rect
           style="display:inline;opacity:0.993;fill:#004e66;fill-opacity:1;stroke:none;stroke-width:0.201541;stroke-miterlimit:4;stroke-dasharray:none;stroke-opacity:1"
           id="rect1058-2-10-4-7-6-7-9"
           width="23.857563"
           height="4.0559316"
           x="68.669052"
           y="94.45533" />
      </g>
    </g>
  </g>
  <style
     type="text/css"
     id="style973">
	.st0{fill:#3A4249;}
</style>
</svg>
