<?xml version="1.0" encoding="UTF-8" standalone="no"?>
<svg
   xmlns:dc="http://purl.org/dc/elements/1.1/"
   xmlns:cc="http://creativecommons.org/ns#"
   xmlns:rdf="http://www.w3.org/1999/02/22-rdf-syntax-ns#"
   xmlns:svg="http://www.w3.org/2000/svg"
   xmlns="http://www.w3.org/2000/svg"
   xmlns:sodipodi="http://sodipodi.sourceforge.net/DTD/sodipodi-0.dtd"
   xmlns:inkscape="http://www.inkscape.org/namespaces/inkscape"
   width="131.83727mm"
   height="131.83727mm"
   viewBox="0 0 131.83728 131.83726"
   version="1.1"
   id="svg16"
   inkscape:version="1.0.1 (3bc2e813f5, 2020-09-07, custom)"
   sodipodi:docname="logo.svg"
   inkscape:export-filename="/home/soenke/Projects/covid-inzidenz-bot/resources/logo-simple-1-virus-nocenter.png"
   inkscape:export-xdpi="100"
   inkscape:export-ydpi="100">
  <defs
     id="defs10">
    <marker
       style="overflow:visible;"
       id="marker2515"
       refX="0.0"
       refY="0.0"
       orient="auto"
       inkscape:stockid="Arrow1Mend"
       inkscape:isstock="true">
      <path
         transform="scale(0.4) rotate(180) translate(10,0)"
         style="fill-rule:evenodd;stroke:#000000;stroke-width:1pt;stroke-opacity:1;fill:#000000;fill-opacity:1"
         d="M 0.0,0.0 L 5.0,-5.0 L -12.5,0.0 L 5.0,5.0 L 0.0,0.0 z "
         id="path1239" />
    </marker>
    <marker
       style="overflow:visible;"
       id="marker2380"
       refX="0.0"
       refY="0.0"
       orient="auto"
       inkscape:stockid="Arrow1Lend"
       inkscape:isstock="true">
      <path
         transform="scale(0.8) rotate(180) translate(12.5,0)"
         style="fill-rule:evenodd;stroke:#000000;stroke-width:1pt;stroke-opacity:1;fill:#000000;fill-opacity:1"
         d="M 0.0,0.0 L 5.0,-5.0 L -12.5,0.0 L 5.0,5.0 L 0.0,0.0 z "
         id="path2378" />
    </marker>
    <marker
       style="overflow:visible"
       id="marker2250"
       refX="0.0"
       refY="0.0"
       orient="auto"
       inkscape:stockid="Arrow1Mstart"
       inkscape:isstock="true">
      <path
         transform="scale(0.4) translate(10,0)"
         style="fill-rule:evenodd;stroke:#000000;stroke-width:1pt;stroke-opacity:1;fill:#000000;fill-opacity:1"
         d="M 0.0,0.0 L 5.0,-5.0 L -12.5,0.0 L 5.0,5.0 L 0.0,0.0 z "
         id="path1236" />
    </marker>
    <marker
       style="overflow:visible;"
       id="marker1738"
       refX="0.0"
       refY="0.0"
       orient="auto"
       inkscape:stockid="Arrow1Lend"
       inkscape:isstock="true">
      <path
         transform="scale(0.8) rotate(180) translate(12.5,0)"
         style="fill-rule:evenodd;stroke:#000000;stroke-width:1pt;stroke-opacity:1;fill:#000000;fill-opacity:1"
         d="M 0.0,0.0 L 5.0,-5.0 L -12.5,0.0 L 5.0,5.0 L 0.0,0.0 z "
         id="path1233" />
    </marker>
    <marker
       style="overflow:visible"
       id="marker1627"
       refX="0.0"
       refY="0.0"
       orient="auto"
       inkscape:stockid="Arrow1Lstart"
       inkscape:isstock="true">
      <path
         transform="scale(0.8) translate(12.5,0)"
         style="fill-rule:evenodd;stroke:#000000;stroke-width:1pt;stroke-opacity:1;fill:#000000;fill-opacity:1"
         d="M 0.0,0.0 L 5.0,-5.0 L -12.5,0.0 L 5.0,5.0 L 0.0,0.0 z "
         id="path1625" />
    </marker>
    <marker
       style="overflow:visible"
       id="marker1493"
       refX="0.0"
       refY="0.0"
       orient="auto"
       inkscape:stockid="Arrow1Lstart"
       inkscape:isstock="true">
      <path
         transform="scale(0.8) translate(12.5,0)"
         style="fill-rule:evenodd;stroke:#000000;stroke-width:1pt;stroke-opacity:1;fill:none;fill-opacity:1"
         d="M 0.0,0.0 L 5.0,-5.0 L -12.5,0.0 L 5.0,5.0 L 0.0,0.0 z "
         id="path1230" />
    </marker>
    <marker
       style="overflow:visible"
       id="marker1126"
       refX="0"
       refY="0"
       orient="auto"
       inkscape:stockid="Arrow1Mstart"
       inkscape:isstock="true">
      <path
         transform="matrix(0.4,0,0,0.4,4,0)"
         style="fill:#000000;fill-opacity:1;fill-rule:evenodd;stroke:#000000;stroke-width:1pt;stroke-opacity:1"
         d="M 0,0 5,-5 -12.5,0 5,5 Z"
         id="path1124" />
    </marker>
    <marker
       style="overflow:visible"
       id="marker7202"
       refX="0"
       refY="0"
       orient="auto"
       inkscape:stockid="Arrow1Mstart"
       inkscape:isstock="true"
       inkscape:collect="always">
      <path
         transform="matrix(0.4,0,0,0.4,4,0)"
         style="fill:#000000;fill-opacity:1;fill-rule:evenodd;stroke:#000000;stroke-width:1pt;stroke-opacity:1"
         d="M 0,0 5,-5 -12.5,0 5,5 Z"
         id="path7200" />
    </marker>
    <marker
       style="overflow:visible"
       id="marker7108"
       refX="0"
       refY="0"
       orient="auto"
       inkscape:stockid="Arrow1Mend"
       inkscape:isstock="true">
      <path
         transform="matrix(-0.4,0,0,-0.4,-4,0)"
         style="fill:#000000;fill-opacity:1;fill-rule:evenodd;stroke:#000000;stroke-width:1pt;stroke-opacity:1"
         d="M 0,0 5,-5 -12.5,0 5,5 Z"
         id="path7106" />
    </marker>
    <marker
       style="overflow:visible"
       id="marker7020"
       refX="0"
       refY="0"
       orient="auto"
       inkscape:stockid="Arrow1Lend"
       inkscape:isstock="true">
      <path
         transform="matrix(-0.8,0,0,-0.8,-10,0)"
         style="fill:#000000;fill-opacity:1;fill-rule:evenodd;stroke:#000000;stroke-width:1pt;stroke-opacity:1"
         d="M 0,0 5,-5 -12.5,0 5,5 Z"
         id="path7018" />
    </marker>
    <marker
       style="overflow:visible"
       id="marker6036"
       refX="0"
       refY="0"
       orient="auto"
       inkscape:stockid="Arrow1Mstart"
       inkscape:isstock="true">
      <path
         transform="matrix(0.4,0,0,0.4,4,0)"
         style="fill:#ffffff;fill-opacity:1;fill-rule:evenodd;stroke:#000000;stroke-width:1pt;stroke-opacity:1"
         d="M 0,0 5,-5 -12.5,0 5,5 Z"
         id="path6034" />
    </marker>
    <marker
       style="overflow:visible"
       id="Arrow2Lstart"
       refX="0"
       refY="0"
       orient="auto"
       inkscape:stockid="Arrow2Lstart"
       inkscape:isstock="true">
      <path
         transform="matrix(1.1,0,0,1.1,1.1,0)"
         d="M 8.7185878,4.0337352 -2.2072895,0.01601326 8.7185884,-4.0017078 c -1.7454984,2.3720609 -1.7354408,5.6174519 -6e-7,8.035443 z"
         style="fill:#000000;fill-opacity:1;fill-rule:evenodd;stroke:#000000;stroke-width:0.625;stroke-linejoin:round;stroke-opacity:1"
         id="path1135" />
    </marker>
    <marker
       style="overflow:visible"
       id="Arrow1Sstart"
       refX="0"
       refY="0"
       orient="auto"
       inkscape:stockid="Arrow1Sstart"
       inkscape:isstock="true">
      <path
         transform="matrix(0.2,0,0,0.2,1.2,0)"
         style="fill:#000000;fill-opacity:1;fill-rule:evenodd;stroke:#000000;stroke-width:1pt;stroke-opacity:1"
         d="M 0,0 5,-5 -12.5,0 5,5 Z"
         id="path1129" />
    </marker>
    <marker
       style="overflow:visible"
       id="marker4649"
       refX="0"
       refY="0"
       orient="auto"
       inkscape:stockid="Arrow1Mend"
       inkscape:isstock="true">
      <path
         transform="matrix(-0.4,0,0,-0.4,-4,0)"
         style="fill:#ffffff;fill-opacity:1;fill-rule:evenodd;stroke:#000000;stroke-width:1pt;stroke-opacity:1"
         d="M 0,0 5,-5 -12.5,0 5,5 Z"
         id="path4647" />
    </marker>
    <marker
       style="overflow:visible"
       id="marker4597"
       refX="0"
       refY="0"
       orient="auto"
       inkscape:stockid="Arrow1Mstart"
       inkscape:isstock="true">
      <path
         transform="matrix(0.4,0,0,0.4,4,0)"
         style="fill:#ffffff;fill-opacity:1;fill-rule:evenodd;stroke:#000000;stroke-width:1pt;stroke-opacity:1"
         d="M 0,0 5,-5 -12.5,0 5,5 Z"
         id="path4595" />
    </marker>
    <marker
       style="overflow:visible"
       id="marker4047"
       refX="0"
       refY="0"
       orient="auto"
       inkscape:stockid="Arrow1Lstart"
       inkscape:isstock="true">
      <path
         transform="matrix(0.8,0,0,0.8,10,0)"
         style="fill:#000000;fill-opacity:1;fill-rule:evenodd;stroke:#000000;stroke-width:1pt;stroke-opacity:1"
         d="M 0,0 5,-5 -12.5,0 5,5 Z"
         id="path4045" />
    </marker>
    <marker
       style="overflow:visible"
       id="marker4001"
       refX="0"
       refY="0"
       orient="auto"
       inkscape:stockid="Arrow1Lend"
       inkscape:isstock="true">
      <path
         transform="matrix(-0.8,0,0,-0.8,-10,0)"
         style="fill:#000000;fill-opacity:1;fill-rule:evenodd;stroke:#000000;stroke-width:1pt;stroke-opacity:1"
         d="M 0,0 5,-5 -12.5,0 5,5 Z"
         id="path3999" />
    </marker>
    <marker
       style="overflow:visible"
       id="Arrow1Lend"
       refX="0"
       refY="0"
       orient="auto"
       inkscape:stockid="Arrow1Lend"
       inkscape:isstock="true">
      <path
         transform="matrix(-0.8,0,0,-0.8,-10,0)"
         style="fill:none;fill-opacity:1;fill-rule:evenodd;stroke:#000000;stroke-width:1pt;stroke-opacity:1"
         d="M 0,0 5,-5 -12.5,0 5,5 Z"
         id="path1120" />
    </marker>
    <marker
       style="overflow:visible"
       id="Arrow1Lstart"
       refX="0"
       refY="0"
       orient="auto"
       inkscape:stockid="Arrow1Lstart"
       inkscape:isstock="true">
      <path
         transform="matrix(0.8,0,0,0.8,10,0)"
         style="fill:none;fill-opacity:1;fill-rule:evenodd;stroke:#000000;stroke-width:1pt;stroke-opacity:1"
         d="M 0,0 5,-5 -12.5,0 5,5 Z"
         id="path1117" />
    </marker>
    <marker
       style="overflow:visible"
       id="Arrow1Mend"
       refX="0"
       refY="0"
       orient="auto"
       inkscape:stockid="Arrow1Mend"
       inkscape:isstock="true">
      <path
         transform="matrix(-0.4,0,0,-0.4,-4,0)"
         style="fill:#ffffff;fill-opacity:1;fill-rule:evenodd;stroke:#000000;stroke-width:1pt;stroke-opacity:1"
         d="M 0,0 5,-5 -12.5,0 5,5 Z"
         id="path1126" />
    </marker>
    <marker
       style="overflow:visible"
       id="Arrow1Mstart"
       refX="0"
       refY="0"
       orient="auto"
       inkscape:stockid="Arrow1Mstart"
       inkscape:isstock="true">
      <path
         transform="matrix(0.4,0,0,0.4,4,0)"
         style="fill:#000000;fill-opacity:1;fill-rule:evenodd;stroke:#000000;stroke-width:1pt;stroke-opacity:1"
         d="M 0,0 5,-5 -12.5,0 5,5 Z"
         id="path1123" />
    </marker>
    <filter
       inkscape:collect="always"
       style="color-interpolation-filters:sRGB"
       id="filter2117"
       x="-3.1172393e-05"
       width="1.0000623"
       y="-5.4044357e-06"
       height="1.0000108">
      <feGaussianBlur
         inkscape:collect="always"
         stdDeviation="0.00011854776"
         id="feGaussianBlur2119" />
    </filter>
    <filter
       inkscape:collect="always"
       style="color-interpolation-filters:sRGB"
       id="filter2121"
       x="-3.1092937e-05"
       width="1.0000622"
       y="-6.6089614e-06"
       height="1.0000132">
      <feGaussianBlur
         inkscape:collect="always"
         stdDeviation="0.00011854776"
         id="feGaussianBlur2123" />
    </filter>
    <filter
       inkscape:collect="always"
       style="color-interpolation-filters:sRGB"
       id="filter2125"
       x="-3.1210411e-05"
       width="1.0000624"
       y="-4.9423168e-06"
       height="1.0000099">
      <feGaussianBlur
         inkscape:collect="always"
         stdDeviation="0.00011854776"
         id="feGaussianBlur2127" />
    </filter>
    <filter
       inkscape:collect="always"
       style="color-interpolation-filters:sRGB"
       id="filter2129"
       x="-3.1129046e-05"
       width="1.0000623"
       y="-6.0159351e-06"
       height="1.000012">
      <feGaussianBlur
         inkscape:collect="always"
         stdDeviation="0.00011854776"
         id="feGaussianBlur2131" />
    </filter>
    <filter
       inkscape:collect="always"
       style="color-interpolation-filters:sRGB"
       id="filter2133"
       x="-3.0928071e-05"
       width="1.0000619"
       y="-1.0875858e-05"
       height="1.0000218">
      <feGaussianBlur
         inkscape:collect="always"
         stdDeviation="0.00011854776"
         id="feGaussianBlur2135" />
    </filter>
    <filter
       inkscape:collect="always"
       style="color-interpolation-filters:sRGB"
       id="filter2137"
       x="-3.1071279e-05"
       width="1.0000621"
       y="-7.0080946e-06"
       height="1.000014">
      <feGaussianBlur
         inkscape:collect="always"
         stdDeviation="0.00011854776"
         id="feGaussianBlur2139" />
    </filter>
    <filter
       inkscape:collect="always"
       style="color-interpolation-filters:sRGB"
       id="filter2117-6"
       x="-3.1172392e-05"
       width="1.0000623"
       y="-5.4044358e-06"
       height="1.0000108">
      <feGaussianBlur
         inkscape:collect="always"
         stdDeviation="0.00011854776"
         id="feGaussianBlur2119-2" />
    </filter>
    <filter
       inkscape:collect="always"
       style="color-interpolation-filters:sRGB"
       id="filter2137-9"
       x="-3.1071278e-05"
       width="1.0000621"
       y="-7.0080946e-06"
       height="1.0000139">
      <feGaussianBlur
         inkscape:collect="always"
         stdDeviation="0.00011854776"
         id="feGaussianBlur2139-1" />
    </filter>
    <filter
       inkscape:collect="always"
       style="color-interpolation-filters:sRGB"
       id="filter2133-2"
       x="-3.0928069e-05"
       width="1.0000619"
       y="-1.0875858e-05"
       height="1.0000218">
      <feGaussianBlur
         inkscape:collect="always"
         stdDeviation="0.00011854776"
         id="feGaussianBlur2135-7" />
    </filter>
    <filter
       inkscape:collect="always"
       style="color-interpolation-filters:sRGB"
       id="filter2129-0"
       x="-3.1129046e-05"
       width="1.0000623"
       y="-6.015935e-06"
       height="1.000012">
      <feGaussianBlur
         inkscape:collect="always"
         stdDeviation="0.00011854776"
         id="feGaussianBlur2131-9" />
    </filter>
    <filter
       inkscape:collect="always"
       style="color-interpolation-filters:sRGB"
       id="filter2125-3"
       x="-3.1210409e-05"
       width="1.0000623"
       y="-4.942317e-06"
       height="1.0000099">
      <feGaussianBlur
         inkscape:collect="always"
         stdDeviation="0.00011854776"
         id="feGaussianBlur2127-6" />
    </filter>
    <filter
       inkscape:collect="always"
       style="color-interpolation-filters:sRGB"
       id="filter2121-0"
       x="-3.1092935e-05"
       width="1.0000622"
       y="-6.6089615e-06"
       height="1.0000132">
      <feGaussianBlur
         inkscape:collect="always"
         stdDeviation="0.00011854776"
         id="feGaussianBlur2123-6" />
    </filter>
    <filter
       inkscape:collect="always"
       style="color-interpolation-filters:sRGB"
       id="filter4046"
       x="-1.4640252e-06"
       width="1.0000029"
       y="-2.2613609e-05"
       height="1.0000452">
      <feGaussianBlur
         inkscape:collect="always"
         stdDeviation="1.9698843e-05"
         id="feGaussianBlur4048" />
    </filter>
    <filter
       inkscape:collect="always"
       style="color-interpolation-filters:sRGB"
       id="filter4050"
       x="-3.1064153e-06"
       width="1.0000062"
       y="-2.2613609e-05"
       height="1.0000452">
      <feGaussianBlur
         inkscape:collect="always"
         stdDeviation="1.9698843e-05"
         id="feGaussianBlur4052" />
    </filter>
    <filter
       inkscape:collect="always"
       style="color-interpolation-filters:sRGB"
       id="filter4054"
       x="-1.112632e-06"
       width="1.0000022"
       y="-2.2613609e-05"
       height="1.0000452">
      <feGaussianBlur
         inkscape:collect="always"
         stdDeviation="1.9698843e-05"
         id="feGaussianBlur4056" />
    </filter>
  </defs>
  <sodipodi:namedview
     id="base"
     pagecolor="#00b1e6"
     bordercolor="#666666"
     borderopacity="1.0"
     inkscape:pageopacity="1"
     inkscape:pageshadow="2"
     inkscape:zoom="1.4"
     inkscape:cx="191.38582"
     inkscape:cy="235.62533"
     inkscape:document-units="mm"
     inkscape:current-layer="layer2"
     inkscape:document-rotation="0"
     showgrid="false"
     inkscape:window-width="1920"
     inkscape:window-height="1016"
     inkscape:window-x="0"
     inkscape:window-y="0"
     inkscape:window-maximized="1"
     showguides="true"
     inkscape:guide-bbox="true"
     inkscape:snap-nodes="false"
     inkscape:object-nodes="false"
     inkscape:snap-smooth-nodes="false"
     fit-margin-top="15"
     fit-margin-left="15"
     fit-margin-right="15"
     fit-margin-bottom="15"
     lock-margins="true"
     inkscape:snap-intersection-paths="false"
     inkscape:snap-to-guides="true">
    <inkscape:grid
       type="xygrid"
       id="grid7458" />
    <sodipodi:guide
       position="-121.14139,153.19292"
       orientation="0.70710678,-0.70710678"
       id="guide3840" />
    <sodipodi:guide
       position="12.09525,12.018813"
       orientation="1,0"
       id="guide3842" />
    <sodipodi:guide
       position="118.87353,118.79709"
       orientation="0,-1"
       id="guide3844" />
    <sodipodi:guide
       position="12.09525,12.018813"
       orientation="0,-1"
       id="guide3846" />
    <sodipodi:guide
       position="118.87353,33.941431"
       orientation="1,0"
       id="guide3848" />
    <sodipodi:guide
       position="74.46132,74.384883"
       orientation="0.70710678,-0.70710678"
       id="guide3850" />
    <sodipodi:guide
       position="12.095251,118.79708"
       orientation="-0.70710678,-0.70710678"
       id="guide3852" />
    <sodipodi:guide
       position="65.484389,65.407942"
       orientation="0,-1"
       id="guide3854" />
  </sodipodi:namedview>
  <metadata
     id="metadata13">
    <rdf:RDF>
      <cc:Work
         rdf:about="">
        <dc:format>image/svg+xml</dc:format>
        <dc:type
           rdf:resource="http://purl.org/dc/dcmitype/StillImage" />
        <dc:title />
      </cc:Work>
    </rdf:RDF>
  </metadata>
  <g
     inkscape:groupmode="layer"
     id="layer5"
     inkscape:label="BG Circle"
     transform="translate(-8.153002,-14.219819)"
     style="display:none">
    <g
       id="g3265"
       inkscape:export-xdpi="38"
       inkscape:export-ydpi="38"
       style="display:inline"
       transform="translate(0,-0.18824986)">
      <g
         id="g3144"
         transform="matrix(0.82532747,0,0,0.82532747,9.0948962,12.622134)"
         inkscape:export-xdpi="38"
         inkscape:export-ydpi="38">
        <path
           style="opacity:1;fill:#f2f2f3;fill-opacity:0.265219;stroke:none;stroke-width:0.684576;stroke-linecap:round;stroke-linejoin:round;stroke-miterlimit:4;stroke-dasharray:none;stroke-opacity:1"
           id="path3501"
           sodipodi:type="arc"
           sodipodi:cx="78.728432"
           sodipodi:cy="81.805489"
           sodipodi:rx="79.767487"
           sodipodi:ry="79.767487"
           sodipodi:start="0"
           sodipodi:end="6.2670585"
           sodipodi:open="true"
           sodipodi:arc-type="arc"
           d="M 158.49592,81.805489 A 79.767487,79.767487 0 0 1 79.05003,161.57233 79.767487,79.767487 0 0 1 -1.0364617,82.448679 79.767487,79.767487 0 0 1 77.763659,2.0438366 79.767487,79.767487 0 0 1 158.48555,80.519149" />
      </g>
    </g>
  </g>
  <g
     inkscape:groupmode="layer"
     id="layer2"
     inkscape:label="3 Covid"
     style="display:none;opacity:1"
     transform="translate(-40.134398,-58.088193)">
    <circle
       id="path7886"
       style="fill:#004e66;fill-opacity:1;stroke:#000000;stroke-width:0.264583"
       cx="185.00491"
       cy="159.54517"
       r="0.048727915" />
    <g
       id="g4011"
       style="display:inline;opacity:1"
       transform="matrix(0.49302167,0,0,0.49302167,56.520721,24.438602)">
      <path
         class="st0"
         d="m 155.89512,109.36911 c -0.76275,-1.10175 -2.03398,-0.678 -2.79673,-0.5085 -0.1695,0.0847 -0.339,0.0847 -0.5085,0.1695 0,-0.1695 0.0848,-0.339 0.1695,-0.5085 0.25425,-0.84749 0.678,-2.03398 -0.42374,-2.79673 -1.017,-0.67799 -2.03399,0.0847 -2.71198,0.59325 -0.0848,0.0847 -0.25425,0.1695 -0.339,0.25425 0,-0.1695 0,-0.339 0,-0.42375 0,-0.76274 -0.0848,-2.11873 -1.35599,-2.45773 -1.18649,-0.25425 -1.86448,0.84749 -2.37298,1.52549 -0.0848,0.0847 -0.1695,0.25425 -0.25425,0.33899 -0.0847,-0.16949 -0.0847,-0.25424 -0.1695,-0.42374 -0.339,-0.76275 -0.76274,-1.94924 -2.11873,-1.86449 -1.27124,0.1695 -1.52549,1.44074 -1.69499,2.20349 0,0.0847 -0.0848,0.25424 -0.0848,0.42374 -0.0847,-0.0847 -0.1695,-0.25425 -0.25425,-0.339 -0.59324,-0.67799 -1.44073,-1.61023 -2.62723,-1.10174 -1.10174,0.59325 -0.93224,1.86449 -0.84749,2.71198 0,0.1695 0.0847,0.339 0.0847,0.5085 -0.1695,-0.0847 -0.25425,-0.1695 -0.42375,-0.1695 -0.67799,-0.339 -1.94923,-1.01699 -2.88147,-0.0847 -0.8475,0.93224 -0.25425,2.03398 0.1695,2.79673 0.0847,0.1695 0.16949,0.42375 0.25424,0.59324 -0.1695,0 -0.42374,0 -0.59324,0 -0.8475,-0.0847 -2.20349,-0.16949 -2.71198,1.10175 -0.1695,0.42374 0,0.93224 0.42375,1.10174 0.42374,0.1695 0.93224,0 1.10174,-0.42375 0.0847,-0.1695 0.67799,-0.0847 1.01699,-0.0847 0.76274,0.0847 1.69499,0.0847 2.20348,-0.67799 0.5085,-0.76275 0.0848,-1.69499 -0.25425,-2.37299 -0.0847,-0.25424 -0.33899,-0.67799 -0.33899,-0.84749 0.16949,0 0.59324,0.25425 0.84749,0.339 0.67799,0.339 1.52549,0.76274 2.28823,0.25425 0.76275,-0.5085 0.678,-1.52549 0.5085,-2.28824 0,-0.25424 -0.0848,-0.67799 -0.0848,-0.84749 0.1695,0.1695 0.42375,0.42375 0.59324,0.59325 0.5085,0.59324 1.1865,1.27124 2.03399,1.01699 0.93224,-0.25425 1.10174,-1.18649 1.27124,-1.94924 0.0848,-0.25424 0.1695,-0.59324 0.1695,-0.76274 0.0848,0.1695 0.25425,0.5085 0.33899,0.76274 0.25425,0.76275 0.678,1.61024 1.52549,1.69499 0.93225,0.0847 1.44074,-0.76274 1.86449,-1.35599 0.0848,-0.1695 0.339,-0.5085 0.42374,-0.67799 0.0848,0.25424 0.0848,0.59324 0.0848,0.84749 0,0.76274 0.0847,1.77974 0.93224,2.11873 0.84749,0.42375 1.61023,-0.1695 2.20348,-0.67799 0.1695,-0.1695 0.5085,-0.42375 0.678,-0.5085 0,0.25425 -0.1695,0.59325 -0.25425,0.8475 -0.25425,0.76274 -0.5085,1.69498 0.0848,2.28823 0.67799,0.67799 1.61023,0.42375 2.28823,0.25425 0.25425,-0.0847 0.84749,-0.25425 0.93224,-0.25425 0,0.1695 -0.339,0.59324 -0.5085,0.84749 -0.42374,0.59325 -1.10174,1.44074 -0.67799,2.28823 0.1695,0.339 0.42375,0.5085 0.76275,0.5085 0.0847,0 0.25424,0 0.33899,-0.0847 0.42375,-0.1695 0.59325,-0.59324 0.42375,-1.01699 0.0847,-0.1695 0.25425,-0.5085 0.42375,-0.678 0.76274,-0.67799 1.52548,-1.69498 0.84749,-2.79672 z"
         id="path975"
         style="fill:#ffffff;fill-opacity:1;stroke-width:2.3;stroke-miterlimit:4;stroke-dasharray:none" />
      <path
         class="st0"
         d="m 164.9633,123.18325 c -0.93224,-0.59325 -2.11873,-0.42375 -2.88148,0.25425 l -2.37298,-1.35599 c 0.84749,-1.69499 1.44074,-3.47473 1.77974,-5.42396 l 3.38997,0.339 0.1695,-1.69499 -3.38997,-0.339 c 0,-0.33899 0.0847,-0.67799 0.0847,-1.01699 0,-0.339 0,-0.67799 -0.0847,-1.01699 l 3.38997,-0.339 -0.1695,-1.69499 -3.38997,0.339 c -0.25425,-1.94923 -0.93225,-3.72897 -1.77974,-5.42396 l 2.37298,-1.35599 c 0.76275,0.678 1.94924,0.8475 2.88148,0.25425 1.18649,-0.67799 1.61024,-2.28823 0.93224,-3.47472 -0.67799,-1.18649 -2.28823,-1.610244 -3.47472,-0.93224 -0.93224,0.59324 -1.44074,1.61023 -1.18649,2.62723 l -2.37298,1.35598 c -1.017,-1.61023 -2.37299,-3.05097 -3.81372,-4.23746 l 2.03398,-2.796734 -1.35599,-1.01699 -2.03398,2.79673 c -0.59325,-0.339 -1.18649,-0.678 -1.77974,-1.017 l 1.35599,-3.13572 -1.52549,-0.678 -1.35599,3.13573 c -1.77974,-0.678 -3.64422,-1.10174 -5.59346,-1.18649 v -2.711984 c 1.017,-0.338997 1.69499,-1.271238 1.69499,-2.372981 0,-1.440739 -1.10174,-2.54248 -2.54248,-2.54248 -1.44074,0 -2.54248,1.101741 -2.54248,2.54248 0,1.101743 0.678,2.033984 1.69499,2.372981 v 2.711984 c -1.94924,0.0847 -3.81372,0.50849 -5.59346,1.18649 l -1.35599,-3.13573 -1.52549,0.678 1.35599,3.13572 c -0.59324,0.339 -1.18649,0.678 -1.77973,1.017 l -2.03399,-2.79673 -1.35599,1.01699 2.03399,2.796734 c -1.52549,1.18649 -2.79673,2.62723 -3.81372,4.23746 l -2.45774,-1.35598 c 0.1695,-1.017 -0.25424,-2.11874 -1.18649,-2.62723 -1.27124,-0.678004 -2.88147,-0.25425 -3.55947,0.93224 -0.67799,1.18649 -0.25425,2.79673 0.93225,3.47472 0.93224,0.59325 2.11873,0.42375 2.88147,-0.25425 l 2.37299,1.35599 c -0.8475,1.69499 -1.44075,3.47473 -1.77974,5.42396 l -3.38998,-0.339 -0.16949,1.69499 3.38997,0.339 c 0,0.339 -0.0847,0.67799 -0.0847,1.01699 0,0.339 0,0.678 0.0847,1.01699 l -3.38997,0.339 0.16949,1.69499 3.38998,-0.339 c 0.25425,1.94923 0.93224,3.72897 1.77974,5.42396 l -2.37299,1.35599 c -0.76274,-0.678 -1.94923,-0.8475 -2.88147,-0.25425 -1.1865,0.67799 -1.61024,2.28823 -0.93225,3.47472 0.678,1.18649 2.28823,1.61024 3.47473,0.93225 0.93224,-0.59325 1.44073,-1.61024 1.18649,-2.62723 l 2.37298,-1.35599 c 1.01699,1.61023 2.37298,3.05097 3.81372,4.23746 l -2.03399,2.79673 1.35599,1.01699 2.03399,-2.79672 c 0.59324,0.33899 1.18649,0.67799 1.77974,1.01699 l -1.35599,3.13572 1.52548,0.678 1.35599,-3.13573 c 1.77974,0.678 3.64422,1.10174 5.59346,1.18649 v 2.71198 c -1.01699,0.339 -1.69499,1.27124 -1.69499,2.37298 0,1.44074 1.10174,2.54249 2.54248,2.54249 1.44074,0 2.54248,-1.10175 2.54248,-2.54249 0,-1.10174 -0.67799,-2.03398 -1.69498,-2.37298 v -2.71198 c 1.94923,-0.0848 3.81372,-0.50849 5.59345,-1.18649 l 1.35599,3.13573 1.52549,-0.678 -1.35599,-3.13572 c 0.59325,-0.339 1.18649,-0.678 1.77974,-1.01699 l 2.03398,2.79672 1.35599,-1.01699 -2.03398,-2.79673 c 1.52548,-1.18649 2.79673,-2.62723 3.81372,-4.23746 l 2.37298,1.35599 c -0.1695,1.01699 0.25425,2.11873 1.18649,2.62723 1.18649,0.67799 2.79673,0.25424 3.47472,-0.93225 0.678,-1.18649 0.42375,-2.79673 -0.76274,-3.47472 z m -10.93267,3.30522 -1.01699,-1.35599 -1.35599,1.017 1.01699,1.35599 c -0.50849,0.33899 -0.93224,0.59324 -1.44073,0.84749 l -0.678,-1.52549 -1.61024,0.59325 0.678,1.52549 c -1.52549,0.59324 -3.22048,0.93224 -4.91546,1.01699 v -1.61024 h -1.69499 v 1.61024 c -1.69499,-0.0848 -3.38997,-0.42375 -4.91546,-1.01699 l 0.67799,-1.52549 -1.52549,-0.678 -0.67799,1.52549 c -0.5085,-0.25425 -1.01699,-0.5085 -1.44074,-0.84749 l 1.01699,-1.35599 -1.35599,-1.01699 -1.10174,1.44073 c -1.27124,-1.10174 -2.45773,-2.28823 -3.38997,-3.72897 l 1.44074,-0.84749 -0.8475,-1.44074 -1.44074,0.84749 c -0.76274,-1.44073 -1.27124,-3.05097 -1.52549,-4.74596 l 1.61024,-0.1695 -0.1695,-1.69499 -1.52548,0.0847 c 0,-0.25424 -0.0847,-0.59324 -0.0847,-0.84749 0,-0.25425 0,-0.59325 0.0847,-0.84749 l 1.61023,0.1695 0.1695,-1.69499 -1.61023,-0.1695 c 0.25424,-1.69499 0.76274,-3.30522 1.52548,-4.74596 l 1.44074,0.84749 0.8475,-1.44074 -1.44074,-0.84749 c 0.93224,-1.44074 2.03398,-2.71198 3.38997,-3.72897 l 1.01699,1.35599 1.35599,-1.017 -1.01699,-1.35599 c 0.5085,-0.33899 0.93224,-0.593244 1.44074,-0.847494 l 0.67799,1.525494 1.52549,-0.678 -0.67799,-1.525484 c 1.52549,-0.59325 3.22047,-0.93225 4.91546,-1.017 v 1.61024 h 1.69499 v -1.61024 c 1.69498,0.0847 3.38997,0.42375 4.91546,1.017 l -0.678,1.525484 1.52549,0.678 0.678,-1.525494 c 0.50849,0.25425 1.01699,0.508504 1.44073,0.847494 l -1.01699,1.35599 1.35599,1.017 1.01699,-1.35599 c 1.27125,1.10174 2.45773,2.28823 3.38998,3.72897 l -1.44074,0.84749 0.84749,1.44074 1.44074,-0.84749 c 0.76275,1.44074 1.27124,3.05097 1.52549,4.74596 l -1.61024,0.1695 0.1695,1.69499 1.61024,-0.1695 c 0,0.25424 0.0847,0.59324 0.0847,0.84749 0,0.25425 0,0.59325 -0.0847,0.84749 l -1.61024,-0.16949 -0.1695,1.69498 1.61024,0.1695 c -0.25425,1.69499 -0.76274,3.30523 -1.52549,4.74596 l -1.44074,-0.84749 -0.84749,1.44074 1.44074,0.84749 c -0.93225,1.44074 -2.03399,2.71198 -3.30523,3.81372 z"
         id="path977"
         style="fill:#ffffff;fill-opacity:1;stroke-width:2.3;stroke-miterlimit:4;stroke-dasharray:none" />
    </g>
    <g
       id="g4007"
       style="display:inline;opacity:1"
       transform="translate(-43.406727,-77.008219)">
      <path
         class="st0"
         d="m 115.80462,160.86361 c -0.58219,-0.84093 -1.5525,-0.51749 -2.13469,-0.38812 -0.12937,0.0647 -0.25875,0.0647 -0.38812,0.12938 0,-0.12938 0.0647,-0.25875 0.12937,-0.38813 0.19406,-0.64687 0.5175,-1.5525 -0.32344,-2.13469 -0.77625,-0.5175 -1.5525,0.0647 -2.07,0.45281 -0.0647,0.0647 -0.19406,0.12938 -0.25875,0.19407 0,-0.12938 0,-0.25875 0,-0.32344 0,-0.58219 -0.0647,-1.61719 -1.035,-1.87594 -0.90562,-0.19406 -1.42312,0.64688 -1.81125,1.16438 -0.0647,0.0647 -0.12937,0.19406 -0.19406,0.25875 -0.0647,-0.12938 -0.0647,-0.19407 -0.12938,-0.32344 -0.25875,-0.58219 -0.58218,-1.48781 -1.61718,-1.42313 -0.97032,0.12938 -1.16438,1.09969 -1.29375,1.68188 0,0.0647 -0.0647,0.19406 -0.0647,0.32344 -0.0647,-0.0647 -0.12938,-0.19407 -0.19406,-0.25875 -0.45282,-0.5175 -1.09969,-1.22907 -2.00532,-0.84094 -0.84094,0.45281 -0.71156,1.42312 -0.64687,2.07 0,0.12937 0.0647,0.25875 0.0647,0.38813 -0.12937,-0.0647 -0.19406,-0.12938 -0.32343,-0.12938 -0.5175,-0.25875 -1.48782,-0.77625 -2.199384,-0.0647 -0.64687,0.71156 -0.19406,1.55251 0.12938,2.13469 0.0647,0.12938 0.12937,0.32344 0.19406,0.45282 -0.12938,0 -0.32344,0 -0.45281,0 -0.64688,-0.0647 -1.68188,-0.12938 -2.07001,0.84093 -0.12937,0.32344 0,0.71157 0.32344,0.84094 0.32344,0.12938 0.71156,0 0.84094,-0.32344 0.0647,-0.12937 0.5175,-0.0647 0.77625,-0.0647 0.58219,0.0647 1.293754,0.0647 1.681884,-0.5175 0.38812,-0.58219 0.0647,-1.29376 -0.19407,-1.81125 -0.0647,-0.19407 -0.25875,-0.51751 -0.25875,-0.64688 0.12938,0 0.45282,0.19406 0.64688,0.25875 0.5175,0.25875 1.16437,0.58219 1.74656,0.19406 0.58219,-0.38812 0.5175,-1.16437 0.38813,-1.74656 0,-0.19406 -0.0647,-0.5175 -0.0647,-0.64688 0.12937,0.12938 0.32344,0.32344 0.45281,0.45282 0.38813,0.45281 0.90563,0.97031 1.5525,0.77625 0.71157,-0.19407 0.84094,-0.90563 0.97032,-1.48782 0.0647,-0.19406 0.12937,-0.45281 0.12937,-0.58219 0.0647,0.12938 0.19406,0.38813 0.25875,0.58219 0.19406,0.58219 0.5175,1.22906 1.16438,1.29375 0.71156,0.0647 1.09968,-0.58218 1.42312,-1.035 0.0647,-0.12937 0.25875,-0.38812 0.32344,-0.5175 0.0647,0.19406 0.0647,0.45281 0.0647,0.64688 0,0.58218 0.0647,1.35844 0.71156,1.61718 0.64688,0.32344 1.22906,-0.12937 1.68188,-0.51749 0.12937,-0.12938 0.38812,-0.32344 0.5175,-0.38813 0,0.19406 -0.12938,0.45281 -0.19407,0.64688 -0.19406,0.58218 -0.38812,1.29375 0.0647,1.74656 0.5175,0.5175 1.22906,0.32344 1.74656,0.19406 0.19407,-0.0647 0.64688,-0.19406 0.71157,-0.19406 0,0.12938 -0.25875,0.45281 -0.38813,0.64688 -0.32344,0.45281 -0.84094,1.09968 -0.5175,1.74656 0.12938,0.25875 0.32344,0.38812 0.58219,0.38812 0.0647,0 0.19406,0 0.25875,-0.0647 0.32344,-0.12938 0.45281,-0.45282 0.32344,-0.77625 0.0647,-0.12938 0.19406,-0.38813 0.32344,-0.5175 0.58218,-0.5175 1.16437,-1.29375 0.64687,-2.1347 z"
         id="path975-5"
         style="display:inline;fill:#ffffff;fill-opacity:1;stroke-width:0.646874" />
      <path
         class="st0"
         d="m 122.72619,171.40769 c -0.71157,-0.45282 -1.61719,-0.32344 -2.19938,0.19406 l -1.81125,-1.035 c 0.64687,-1.29375 1.09969,-2.65219 1.35844,-4.14001 l 2.5875,0.25876 0.12937,-1.29376 -2.5875,-0.25875 c 0,-0.25875 0.0647,-0.5175 0.0647,-0.77625 0,-0.25875 0,-0.5175 -0.0647,-0.77625 l 2.5875,-0.25875 -0.12937,-1.29375 -2.5875,0.25875 c -0.19406,-1.48781 -0.71157,-2.84625 -1.35844,-4.14 l 1.81125,-1.035 c 0.58219,0.5175 1.48781,0.64687 2.19938,0.19406 0.90562,-0.5175 1.22906,-1.74656 0.71156,-2.65219 -0.5175,-0.90562 -1.74657,-1.22906 -2.65219,-0.71156 -0.71156,0.45281 -1.09969,1.22906 -0.90562,2.00531 l -1.81126,1.035 c -0.77625,-1.22906 -1.81125,-2.32875 -2.91093,-3.23437 l 1.55249,-2.13469 -1.03499,-0.77625 -1.55251,2.13469 c -0.45281,-0.25875 -0.90562,-0.5175 -1.35843,-0.77625 l 1.035,-2.39344 -1.16438,-0.5175 -1.035,2.39344 c -1.35844,-0.5175 -2.78156,-0.84094 -4.26938,-0.90563 v -2.07 c 0.77625,-0.25875 1.29375,-0.97031 1.29375,-1.81125 0,-1.09969 -0.84093,-1.94063 -1.94062,-1.94063 -1.09969,0 -1.94063,0.84094 -1.94063,1.94063 0,0.84094 0.5175,1.5525 1.29375,1.81125 v 2.07 c -1.48781,0.0647 -2.91094,0.38813 -4.26937,0.90563 l -1.035,-2.39344 -1.164384,0.5175 1.035004,2.39344 c -0.45281,0.25875 -0.905624,0.5175 -1.358444,0.77625 l -1.5525,-2.13469 -1.035,0.77625 1.5525,2.13469 c -1.16438,0.90562 -2.13469,2.00531 -2.91094,3.23437 l -1.87594,-1.035 c 0.12938,-0.77625 -0.19406,-1.61719 -0.90562,-2.00531 -0.970316,-0.5175 -2.19938,-0.19406 -2.71688,0.71156 -0.517501,0.90563 -0.194063,2.13469 0.711563,2.65219 0.711563,0.45281 1.617187,0.32344 2.199377,-0.19406 l 1.81125,1.035 c -0.64688,1.29375 -1.09969,2.65219 -1.35844,4.14 l -2.5875,-0.25875 -0.129374,1.29375 2.587504,0.25875 c 0,0.25875 -0.0647,0.5175 -0.0647,0.77625 0,0.25875 0,0.5175 0.0647,0.77625 l -2.587504,0.25875 0.129374,1.29376 2.5875,-0.25876 c 0.19406,1.48782 0.71156,2.84626 1.35844,4.14001 l -1.81125,1.035 c -0.58219,-0.5175 -1.487814,-0.64688 -2.199377,-0.19406 -0.905626,0.51749 -1.229064,1.74656 -0.711563,2.65219 0.5175,0.90562 1.746564,1.22906 2.65219,0.71156 0.71156,-0.45282 1.09969,-1.22907 0.90562,-2.00532 l 1.81126,-1.035 c 0.77625,1.22906 1.81125,2.32876 2.91094,3.23438 l -1.55251,2.13469 1.035,0.77625 1.55251,-2.13469 c 0.45281,0.25875 0.905624,0.5175 1.358444,0.77625 l -1.035004,2.39344 1.164374,0.5175 1.035,-2.39344 c 1.35844,0.5175 2.78157,0.84094 4.26938,0.90563 v 2.07 c -0.77625,0.25875 -1.29375,0.97031 -1.29375,1.81125 0,1.09969 0.84094,1.94063 1.94062,1.94063 1.09969,0 1.94063,-0.84094 1.94063,-1.94063 0,-0.84094 -0.5175,-1.5525 -1.29375,-1.81125 v -2.07 c 1.48781,-0.0647 2.91094,-0.38813 4.26938,-0.90563 l 1.035,2.39344 1.16437,-0.5175 -1.035,-2.39344 c 0.45281,-0.25875 0.90563,-0.5175 1.35844,-0.77625 l 1.5525,2.13469 1.035,-0.77625 -1.5525,-2.13469 c 1.16438,-0.90562 2.13469,-2.00532 2.91094,-3.23438 l 1.81125,1.035 c -0.12938,0.77625 0.19406,1.61719 0.90562,2.00532 0.90563,0.5175 2.13469,0.19406 2.6522,-0.71156 0.51749,-0.90563 0.32343,-2.1347 -0.58219,-2.65219 z m -8.3447,2.52281 -0.77625,-1.035 -1.035,0.77625 0.77625,1.035 c -0.38812,0.25875 -0.71156,0.45281 -1.09968,0.64688 l -0.5175,-1.16438 -1.22907,0.45281 0.5175,1.16438 c -1.16437,0.45281 -2.45812,0.71156 -3.75187,0.77625 v -1.22906 h -1.29375 v 1.22906 c -1.29375,-0.0647 -2.58751,-0.32344 -3.75188,-0.77625 l 0.5175,-1.16438 -1.16438,-0.5175 -0.5175,1.16438 c -0.38812,-0.19407 -0.77625,-0.38813 -1.099684,-0.64688 l 0.776254,-1.035 -1.035004,-0.77625 -0.84094,1.09969 c -0.97032,-0.84094 -1.87594,-1.74657 -2.58751,-2.84625 l 1.09969,-0.64688 -0.64687,-1.09969 -1.09969,0.64688 c -0.58219,-1.09969 -0.97031,-2.32875 -1.16438,-3.6225 l 1.22907,-0.12938 -0.12938,-1.29375 -1.16438,0.0647 c 0,-0.19406 -0.0647,-0.45281 -0.0647,-0.64688 0,-0.19406 0,-0.45281 0.0647,-0.64687 l 1.22907,0.12937 0.12937,-1.29375 -1.22906,-0.12937 c 0.19406,-1.29375 0.58219,-2.52282 1.16438,-3.6225 l 1.09968,0.64687 0.64688,-1.09969 -1.09969,-0.64687 c 0.71156,-1.09969 1.5525,-2.07 2.58751,-2.84625 l 0.77625,1.03499 1.035004,-0.77625 -0.776254,-1.035 c 0.388124,-0.25874 0.711564,-0.45281 1.099684,-0.64687 l 0.5175,1.16438 1.16438,-0.51751 -0.5175,-1.16437 c 1.16437,-0.45281 2.45813,-0.71156 3.75188,-0.77625 v 1.22906 h 1.29375 v -1.22906 c 1.29375,0.0647 2.5875,0.32344 3.75187,0.77625 l -0.5175,1.16437 1.16438,0.51751 0.5175,-1.16438 c 0.38812,0.19406 0.77625,0.38813 1.09969,0.64687 l -0.77625,1.035 1.035,0.77625 0.77625,-1.03499 c 0.97031,0.84093 1.87594,1.74656 2.5875,2.84625 l -1.09969,0.64687 0.64688,1.09969 1.09968,-0.64687 c 0.58219,1.09968 0.97032,2.32875 1.16438,3.6225 l -1.22907,0.12937 0.12938,1.29375 1.22906,-0.12937 c 0,0.19406 0.0647,0.45281 0.0647,0.64687 0,0.19407 0,0.45282 -0.0647,0.64688 l -1.22906,-0.12938 -0.12938,1.29375 1.22907,0.12938 c -0.19406,1.29375 -0.58219,2.52282 -1.16438,3.6225 l -1.09968,-0.64687 -0.64688,1.09968 1.09969,0.64688 c -0.71156,1.09969 -1.5525,2.07 -2.52282,2.91094 z"
         id="path977-4"
         style="display:inline;fill:#ffffff;fill-opacity:1;stroke-width:0.646874" />
    </g>
  </g>
  <g
     inkscape:groupmode="layer"
     id="g3261"
     inkscape:label="Single Covid"
     style="display:inline"
     transform="translate(-40.134398,-58.088193)">
    <g
       id="g3993"
       transform="translate(34.988178,53.054394)"
       style="display:inline">
      <path
         class="st0"
         d="m 106.30791,88.771876 c -0.83895,-1.211801 -2.23717,-0.745727 -3.07611,-0.559297 -0.18643,0.09322 -0.37286,0.09322 -0.5593,0.18643 0,-0.18643 0.0932,-0.37286 0.18644,-0.559289 0.27965,-0.932157 0.74572,-2.237166 -0.46608,-3.076108 -1.11858,-0.745719 -2.23716,0.09322 -2.982886,0.652512 -0.09321,0.09321 -0.279648,0.18643 -0.372867,0.279645 0,-0.186429 0,-0.372859 0,-0.466081 0,-0.838935 -0.09321,-2.330381 -1.491445,-2.70324 -1.305016,-0.279653 -2.050735,0.932149 -2.610025,1.677875 -0.09322,0.09322 -0.186437,0.279645 -0.279653,0.37286 -0.09321,-0.18643 -0.09321,-0.279645 -0.186429,-0.466074 -0.37286,-0.838942 -0.838934,-2.143958 -2.33038,-2.050744 -1.398231,0.18643 -1.677876,1.584669 -1.864313,2.423603 0,0.09321 -0.09321,0.279644 -0.09321,0.466074 -0.09322,-0.09321 -0.18643,-0.279644 -0.279644,-0.372859 -0.652513,-0.74572 -1.584662,-1.771091 -2.889677,-1.211801 -1.211802,0.652511 -1.025372,2.050742 -0.932157,2.982891 0,0.18643 0.09322,0.37286 0.09322,0.55929 -0.18643,-0.09321 -0.279645,-0.18643 -0.466075,-0.18643 -0.745727,-0.37286 -2.143958,-1.118579 -3.169329,-0.09321 -0.932149,1.025372 -0.279638,2.237165 0.186437,3.076106 0.09321,0.18643 0.18643,0.466075 0.279645,0.652505 -0.18643,0 -0.466082,0 -0.652504,0 -0.932157,-0.09321 -2.423603,-0.18643 -2.982893,1.211801 -0.18643,0.466075 0,1.025372 0.466075,1.211801 0.466074,0.18643 1.025364,0 1.211801,-0.466081 0.09321,-0.18643 0.74572,-0.09321 1.118587,-0.09321 0.838934,0.09321 1.864305,0.09321 2.423594,-0.745726 0.55929,-0.838935 0.09322,-1.864306 -0.279644,-2.610025 -0.09322,-0.279652 -0.372859,-0.745727 -0.372859,-0.932157 0.186429,0 0.652503,0.279645 0.932149,0.372859 0.745726,0.37286 1.677875,0.838942 2.516817,0.279646 0.838934,-0.55929 0.74572,-1.677877 0.55929,-2.51681 0,-0.279645 -0.09321,-0.74572 -0.09321,-0.932157 0.18643,0.186437 0.466074,0.466082 0.652504,0.652512 0.559289,0.652504 1.305017,1.39823 2.237166,1.118578 1.025371,-0.279644 1.211801,-1.305008 1.398231,-2.14395 0.09322,-0.279645 0.186437,-0.652505 0.186437,-0.838934 0.09321,0.186429 0.279644,0.559289 0.37286,0.838934 0.279644,0.838942 0.745719,1.771091 1.677876,1.864306 1.025363,0.09322 1.584661,-0.838934 2.050735,-1.491446 0.09322,-0.18643 0.372859,-0.55929 0.466075,-0.745719 0.09321,0.279644 0.09321,0.652503 0.09321,0.932156 0,0.838934 0.09322,1.957521 1.025371,2.330381 0.932145,0.466074 1.771098,-0.18643 2.42359,-0.745728 0.18643,-0.186429 0.55931,-0.466074 0.74574,-0.559289 0,0.279645 -0.18643,0.652512 -0.27966,0.932157 -0.27965,0.838934 -0.55929,1.864305 0.0932,2.51681 0.74572,0.745727 1.77109,0.466082 2.51682,0.279652 0.27964,-0.09322 0.93214,-0.279652 1.02536,-0.279652 0,0.186437 -0.37286,0.652511 -0.55929,0.932157 -0.46607,0.652504 -1.2118,1.58466 -0.74573,2.516816 0.18644,0.37286 0.46609,0.55929 0.83894,0.55929 0.0932,0 0.27965,0 0.37286,-0.09322 0.46608,-0.186429 0.65251,-0.652505 0.46608,-1.118579 0.0932,-0.186437 0.27964,-0.559297 0.46608,-0.745727 0.83893,-0.745719 1.67787,-1.864305 0.93215,-3.076107 z"
         id="path3251"
         style="display:inline;fill:#ffffff;fill-opacity:1;stroke-width:0.932154" />
      <path
         class="st0"
         d="m 116.28194,103.96599 c -1.02537,-0.65252 -2.33037,-0.46609 -3.16932,0.27964 l -2.61003,-1.49145 c 0.93215,-1.86431 1.58467,-3.821822 1.95753,-5.965784 l 3.72861,0.372859 0.18643,-1.864306 -3.72861,-0.372859 c 0,-0.372867 0.0932,-0.745726 0.0932,-1.118586 0,-0.37286 0,-0.745719 -0.0932,-1.118587 l 3.72861,-0.372859 -0.18643,-1.864306 -3.72861,0.372859 c -0.27965,-2.143957 -1.02538,-4.101478 -1.95753,-5.965783 l 2.61003,-1.491446 c 0.83895,0.745727 2.14395,0.932156 3.16932,0.279652 1.30502,-0.745727 1.7711,-2.516818 1.02538,-3.821834 -0.74573,-1.305016 -2.51683,-1.77109 -3.82184,-1.025371 -1.02536,0.652512 -1.58466,1.771091 -1.30501,2.889676 l -2.61002,1.491447 c -1.1186,-1.771091 -2.61004,-3.355752 -4.1947,-4.660768 l 2.23717,-3.076107 -1.49144,-1.118586 -2.23717,3.076114 c -0.65251,-0.372868 -1.30502,-0.745727 -1.95752,-1.118587 l 1.49144,-3.448966 -1.67787,-0.745727 -1.49145,3.448967 c -1.957522,-0.745719 -4.008264,-1.211801 -6.152215,-1.305016 v -2.982892 c 1.118587,-0.37286 1.864306,-1.398231 1.864306,-2.610033 0,-1.584661 -1.211801,-2.796462 -2.796462,-2.796462 -1.584661,0 -2.796463,1.211801 -2.796463,2.796462 0,1.211802 0.745727,2.237173 1.864314,2.610033 v 2.982892 c -2.143958,0.09322 -4.194694,0.559297 -6.152214,1.305016 l -1.491447,-3.448967 -1.677875,0.745727 1.491446,3.448966 c -0.652512,0.37286 -1.305016,0.745719 -1.957528,1.118587 l -2.237165,-3.076114 -1.491447,1.118586 2.237173,3.076107 C 79.27545,79.8232 77.877219,81.407861 76.75864,83.178952 l -2.703247,-1.491447 c 0.18643,-1.118585 -0.279644,-2.33038 -1.305016,-2.889676 -1.398231,-0.745719 -3.169325,-0.279645 -3.915051,1.025371 -0.745719,1.305016 -0.279638,3.076107 1.025371,3.821834 1.025371,0.652504 2.33039,0.466075 3.169325,-0.279652 l 2.610031,1.491446 c -0.932149,1.864305 -1.58466,3.821826 -1.957519,5.965783 l -3.728622,-0.372859 -0.18643,1.864306 3.728622,0.372859 c 0,0.372868 -0.09322,0.745727 -0.09322,1.118587 0,0.37286 0,0.745719 0.09322,1.118586 l -3.728622,0.372859 0.18643,1.864306 3.728622,-0.372859 c 0.279644,2.143962 1.02537,4.101474 1.957519,5.965784 l -2.610031,1.49145 c -0.838935,-0.74573 -2.143954,-0.93216 -3.169325,-0.27964 -1.305009,0.74571 -1.77109,2.51681 -1.025371,3.82182 0.745726,1.30501 2.51682,1.77108 3.821837,1.02537 1.025371,-0.65251 1.58466,-1.7711 1.305015,-2.88967 l 2.610032,-1.49146 c 1.118579,1.7711 2.610025,3.35576 4.194686,4.66077 l -2.237165,3.0761 1.491446,1.11859 2.237165,-3.0761 c 0.652512,0.37285 1.305016,0.74572 1.957521,1.11858 l -1.491439,3.44897 1.677876,0.74572 1.491446,-3.44896 c 1.95752,0.74573 4.008256,1.21179 6.152214,1.30501 v 2.98289 c -1.118587,0.37285 -1.864314,1.39823 -1.864314,2.61003 0,1.58467 1.211802,2.79646 2.796463,2.79646 1.584661,0 2.796462,-1.21179 2.796462,-2.79646 0,-1.2118 -0.745719,-2.23718 -1.864306,-2.61003 v -2.98289 c 2.143951,-0.0932 4.194693,-0.55928 6.152215,-1.30501 l 1.49145,3.44896 1.67787,-0.74572 -1.49144,-3.44897 c 0.6525,-0.37286 1.30501,-0.74573 1.95752,-1.11858 l 2.23717,3.0761 1.49144,-1.11859 -2.23718,-3.0761 c 1.67788,-1.30501 3.07611,-2.88967 4.1947,-4.66077 l 2.61002,1.49146 c -0.18643,1.11857 0.27966,2.33038 1.30502,2.88967 1.30502,0.74571 3.07611,0.27964 3.82183,-1.02537 0.74572,-1.30501 0.46608,-3.07611 -0.83894,-3.82182 z m -12.02478,3.63539 -1.11857,-1.49144 -1.49145,1.11858 1.11858,1.49143 c -0.55928,0.37287 -1.02536,0.65252 -1.58465,0.93217 l -0.74573,-1.67787 -1.771092,0.65249 0.745726,1.67788 c -1.677882,0.65251 -3.542188,1.02537 -5.406493,1.11859 v -1.77109 h -1.864306 v 1.77109 c -1.864313,-0.0932 -3.728619,-0.46608 -5.406495,-1.11859 l 0.745727,-1.67788 -1.677876,-0.74571 -0.745727,1.67786 c -0.559289,-0.27964 -1.118586,-0.55929 -1.58466,-0.93215 l 1.118585,-1.49144 -1.491445,-1.11859 -1.211802,1.58467 c -1.398231,-1.21179 -2.703247,-2.51681 -3.728611,-4.10148 l 1.584661,-0.93215 -0.932156,-1.58467 -1.584662,0.93216 c -0.838934,-1.58466 -1.398231,-3.355754 -1.677875,-5.220067 l 1.77109,-0.186422 -0.186429,-1.864306 -1.677876,0.09324 c 0,-0.279644 -0.09322,-0.652512 -0.09322,-0.932157 0,-0.279644 0,-0.652504 0.09322,-0.932149 l 1.77109,0.18643 0.18643,-1.864313 -1.771091,-0.18643 c 0.279646,-1.864306 0.838942,-3.635396 1.677876,-5.220057 l 1.584661,0.932157 0.932157,-1.584669 -1.584661,-0.932149 c 1.025364,-1.584661 2.237165,-2.982892 3.728611,-4.101478 l 1.118587,1.491446 1.491445,-1.118579 -1.118585,-1.491446 c 0.559289,-0.372868 1.025371,-0.652512 1.58466,-0.932157 l 0.745727,1.677876 1.677876,-0.745719 -0.745727,-1.677876 c 1.677876,-0.652512 3.542182,-1.025372 5.406495,-1.118587 v 1.771092 h 1.864306 v -1.771092 c 1.864305,0.09321 3.728611,0.466075 5.406493,1.118587 l -0.745726,1.677876 1.677882,0.745719 0.74571,-1.677876 c 0.5593,0.279645 1.1186,0.559289 1.58466,0.932157 l -1.11857,1.491446 1.49144,1.118579 1.11858,-1.491446 c 1.39823,1.211801 2.70324,2.516817 3.72862,4.101478 l -1.58466,0.932149 0.93214,1.584669 1.58466,-0.932157 c 0.83895,1.584661 1.39823,3.355751 1.67788,5.220057 l -1.77109,0.18643 0.18644,1.864313 1.77109,-0.18643 c 0,0.279645 0.0932,0.652505 0.0932,0.932149 0,0.279645 0,0.652513 -0.0932,0.932157 l -1.77109,-0.186438 -0.18644,1.864306 1.77109,0.186438 c -0.27965,1.864305 -0.83893,3.635399 -1.67788,5.220069 l -1.58466,-0.93216 -0.93214,1.58467 1.58466,0.93214 c -1.02538,1.58466 -2.23718,2.9829 -3.63541,4.19469 z"
         id="path3253"
         style="display:inline;fill:#ffffff;fill-opacity:1;stroke-width:0.932154" />
    </g>
  </g>
  <g
     inkscape:groupmode="layer"
     id="layer4"
     inkscape:label="Chatbubble"
     style="display:inline;opacity:1"
     transform="translate(-40.134398,-58.088193)">
    <path
       style="display:inline;fill:#f2f2f3;fill-opacity:1;stroke:none;stroke-width:0.264583px;stroke-linecap:butt;stroke-linejoin:miter;stroke-opacity:1"
       d="m 26.877002,33.887819 v 41.578 l -4.433065,9.937056 6.678042,-4.737056 h 44.521023 v -46.778 z"
       id="path3856"
       sodipodi:nodetypes="ccccccc"
       transform="matrix(1.3797255,0,0,1.3797255,23.771204,32.894161)" />
  </g>
  <g
     inkscape:groupmode="layer"
     id="layer1"
     inkscape:label="BigMessage"
     style="display:none">
    <g
       id="g4371"
       style="display:inline;opacity:1"
       transform="matrix(0.77911978,0,0,1,-29.537091,-70.434063)">
      <g
         id="g4295">
        <g
           id="g4263">
          <rect
             style="opacity:0.993;fill:#b33312;fill-opacity:1;stroke:none;stroke-width:0.112601;stroke-linecap:butt;stroke-linejoin:miter;stroke-miterlimit:3.9;stroke-dasharray:none;stroke-opacity:1;paint-order:normal"
             id="rect1955"
             width="3.7200344"
             height="5.2449894"
             x="88.082222"
             y="133.15382" />
          <rect
             style="opacity:0.993;fill:#b33312;fill-opacity:1;stroke:none;stroke-width:0.150359;stroke-linecap:butt;stroke-linejoin:miter;stroke-miterlimit:3.9;stroke-dasharray:none;stroke-opacity:1;paint-order:normal"
             id="rect1955-2"
             width="3.6744711"
             height="9.4684105"
             x="83.878052"
             y="128.9304" />
          <rect
             style="opacity:0.993;fill:#b33312;fill-opacity:1;stroke:none;stroke-width:0.135721;stroke-linecap:butt;stroke-linejoin:miter;stroke-miterlimit:3.9;stroke-dasharray:none;stroke-opacity:1;paint-order:normal"
             id="rect1955-06-0"
             width="3.6921363"
             height="7.6775384"
             x="79.656212"
             y="130.72127" />
          <rect
             style="opacity:0.993;fill:#b33312;fill-opacity:1;stroke:none;stroke-width:0.14192;stroke-linecap:butt;stroke-linejoin:miter;stroke-miterlimit:3.9;stroke-dasharray:none;stroke-opacity:1;paint-order:normal"
             id="rect1955-06-2"
             width="3.6597948"
             height="8.4692087"
             x="129.63716"
             y="129.92961" />
          <rect
             style="opacity:0.993;fill:#b33312;fill-opacity:1;stroke:none;stroke-width:0.198379;stroke-linecap:butt;stroke-linejoin:miter;stroke-miterlimit:3.9;stroke-dasharray:none;stroke-opacity:1;paint-order:normal"
             id="rect1955-06-3"
             width="3.6153288"
             height="16.751368"
             x="125.49214"
             y="121.64745" />
          <rect
             style="opacity:0.993;fill:#b33312;fill-opacity:1;stroke:none;stroke-width:0.116839;stroke-linecap:butt;stroke-linejoin:miter;stroke-miterlimit:3.9;stroke-dasharray:none;stroke-opacity:1;paint-order:normal"
             id="rect1955-06-5"
             width="3.6775866"
             height="5.7123108"
             x="133.82666"
             y="132.68651" />
          <rect
             style="opacity:0.993;fill:#b33312;fill-opacity:1;stroke:none;stroke-width:0.0789761;stroke-linecap:butt;stroke-linejoin:miter;stroke-miterlimit:3.9;stroke-dasharray:none;stroke-opacity:1;paint-order:normal"
             id="rect1955-06-9"
             width="3.7606099"
             height="2.552352"
             x="71.151192"
             y="135.84647" />
          <rect
             style="opacity:0.993;fill:#b33312;fill-opacity:1;stroke:none;stroke-width:0.141615;stroke-linecap:butt;stroke-linejoin:miter;stroke-miterlimit:3.9;stroke-dasharray:none;stroke-opacity:1;paint-order:normal"
             id="rect1955-06-22"
             width="3.6850233"
             height="8.3750114"
             x="75.441498"
             y="130.0238" />
          <rect
             style="display:inline;opacity:0.993;fill:#b33312;fill-opacity:1;stroke:none;stroke-width:0.168528;stroke-linecap:butt;stroke-linejoin:miter;stroke-miterlimit:3.9;stroke-dasharray:none;stroke-opacity:1;paint-order:normal"
             id="rect1955-06-3-7"
             width="3.6153288"
             height="12.089289"
             x="108.91205"
             y="126.30954" />
          <rect
             style="display:inline;opacity:0.993;fill:#b33312;fill-opacity:1;stroke:none;stroke-width:0.0885038;stroke-linecap:butt;stroke-linejoin:miter;stroke-miterlimit:3.9;stroke-dasharray:none;stroke-opacity:1;paint-order:normal"
             id="rect1955-06-3-4"
             width="3.6153288"
             height="3.3341236"
             x="117.2021"
             y="135.0647" />
          <rect
             style="display:inline;opacity:0.993;fill:#b33312;fill-opacity:1;stroke:none;stroke-width:0.138635;stroke-linecap:butt;stroke-linejoin:miter;stroke-miterlimit:3.9;stroke-dasharray:none;stroke-opacity:1;paint-order:normal"
             id="rect1955-06-3-43"
             width="3.6153288"
             height="8.180994"
             x="100.622"
             y="130.21783" />
          <rect
             style="display:inline;opacity:0.993;fill:#b33312;fill-opacity:1;stroke:none;stroke-width:0.139548;stroke-linecap:butt;stroke-linejoin:miter;stroke-miterlimit:3.9;stroke-dasharray:none;stroke-opacity:1;paint-order:normal"
             id="rect1955-06-3-0"
             width="3.6153288"
             height="8.2890501"
             x="113.05708"
             y="130.10977" />
          <rect
             style="display:inline;opacity:0.993;fill:#b33312;fill-opacity:1;stroke:none;stroke-width:0.199372;stroke-linecap:butt;stroke-linejoin:miter;stroke-miterlimit:3.9;stroke-dasharray:none;stroke-opacity:1;paint-order:normal"
             id="rect1955-06-3-78"
             width="3.6153288"
             height="16.919455"
             x="92.33194"
             y="121.47936" />
          <rect
             style="display:inline;opacity:0.993;fill:#b33312;fill-opacity:1;stroke:none;stroke-width:0.161744;stroke-linecap:butt;stroke-linejoin:miter;stroke-miterlimit:3.9;stroke-dasharray:none;stroke-opacity:1;paint-order:normal"
             id="rect1955-06-3-6"
             width="3.6153288"
             height="11.135575"
             x="96.476974"
             y="127.26324" />
          <rect
             style="display:inline;opacity:0.993;fill:#b33312;fill-opacity:1;stroke:none;stroke-width:0.161193;stroke-linecap:butt;stroke-linejoin:miter;stroke-miterlimit:3.9;stroke-dasharray:none;stroke-opacity:1;paint-order:normal"
             id="rect1955-06-3-8"
             width="3.6153288"
             height="11.059883"
             x="121.34712"
             y="127.33894" />
          <rect
             style="display:inline;opacity:0.993;fill:#b33312;fill-opacity:1;stroke:none;stroke-width:0.210942;stroke-linecap:butt;stroke-linejoin:miter;stroke-miterlimit:3.9;stroke-dasharray:none;stroke-opacity:1;paint-order:normal"
             id="rect1955-06-3-84"
             width="3.6153288"
             height="18.940159"
             x="104.76701"
             y="119.45866" />
        </g>
        <path
           style="fill:none;stroke:#000000;stroke-width:0.365;stroke-linecap:butt;stroke-linejoin:miter;stroke-miterlimit:4;stroke-dasharray:none;stroke-opacity:1;marker-start:url(#marker7202);marker-end:url(#marker7108)"
           d="m 70.132637,115.85576 v 23.52128 h 72.585073"
           id="path7460" />
      </g>
      <g
         id="g8025"
         transform="translate(-5.9568199,16.022514)">
        <rect
           style="display:inline;opacity:0.993;fill:#004e66;fill-opacity:1;stroke:none;stroke-width:0.355502;stroke-miterlimit:4;stroke-dasharray:none;stroke-opacity:1"
           id="rect1058-2-10-4-7-6-7"
           width="74.231003"
           height="4.0559316"
           x="75.162674"
           y="127.16344" />
        <rect
           style="display:inline;opacity:0.993;fill:#004e66;fill-opacity:1;stroke:none;stroke-width:0.355502;stroke-miterlimit:4;stroke-dasharray:none;stroke-opacity:1"
           id="rect1058-2-10-4-7-6-7-3"
           width="74.23101"
           height="4.0559316"
           x="75.162674"
           y="134.23656" />
      </g>
      <g
         id="g4241"
         transform="translate(0.53680193)">
        <rect
           style="display:inline;opacity:0.993;fill:#004e66;fill-opacity:1;stroke:none;stroke-width:0.355502;stroke-miterlimit:4;stroke-dasharray:none;stroke-opacity:1"
           id="rect1058-2-10-4-7-6-7-1"
           width="74.23101"
           height="4.0559316"
           x="68.669052"
           y="101.32686" />
        <rect
           style="display:inline;opacity:0.993;fill:#004e66;fill-opacity:1;stroke:none;stroke-width:0.355502;stroke-miterlimit:4;stroke-dasharray:none;stroke-opacity:1"
           id="rect1058-2-10-4-7-6-7-3-4"
           width="74.231018"
           height="4.0559316"
           x="68.669052"
           y="108.19839" />
        <rect
           style="display:inline;opacity:0.993;fill:#004e66;fill-opacity:1;stroke:none;stroke-width:0.201541;stroke-miterlimit:4;stroke-dasharray:none;stroke-opacity:1"
           id="rect1058-2-10-4-7-6-7-9"
           width="23.857563"
           height="4.0559316"
           x="68.669052"
           y="94.45533" />
      </g>
    </g>
  </g>
  <g
     inkscape:groupmode="layer"
     id="layer3"
     inkscape:label="ShortMessage"
     style="display:inline">
    <g
       id="g3989"
       transform="matrix(1.3797255,0,0,1.3797255,-5.1142894,-5.5745856)">
      <g
         id="g3965"
         transform="translate(-0.14308179,1.4609606)">
        <g
           id="g3942"
           transform="translate(12.84958,-12.969081)">
          <rect
             style="opacity:1;fill:#004e66;fill-opacity:1;stroke:none;stroke-width:0.484317;stroke-linecap:round;stroke-linejoin:round;stroke-miterlimit:4;stroke-dasharray:none;stroke-opacity:1;filter:url(#filter4050)"
             id="rect3908"
             width="15.219222"
             height="2.0906537"
             x="8.1530018"
             y="36.413105" />
          <rect
             style="opacity:1;fill:#004e66;fill-opacity:1;stroke:none;stroke-width:0.70548;stroke-linecap:round;stroke-linejoin:round;stroke-miterlimit:4;stroke-dasharray:none;stroke-opacity:1;filter:url(#filter4046)"
             id="rect3908-2"
             width="32.292629"
             height="2.0906537"
             x="8.1530018"
             y="40.854637" />
        </g>
        <rect
           style="opacity:1;fill:#004e66;fill-opacity:1;stroke:none;stroke-width:0.809251;stroke-linecap:round;stroke-linejoin:round;stroke-miterlimit:4;stroke-dasharray:none;stroke-opacity:1;filter:url(#filter4054)"
           id="rect3908-2-0"
           width="42.491341"
           height="2.0906537"
           x="21.002583"
           y="57.657402" />
        <g
           id="g3061"
           transform="matrix(0.71177701,0,0,0.44382084,-2.7380597,10.453885)">
          <rect
             style="mix-blend-mode:normal;fill:#992c0f;fill-opacity:1;stroke:none;stroke-width:0.25569;stroke-linecap:round;stroke-linejoin:round;stroke-miterlimit:4;stroke-dasharray:none;stroke-opacity:1;filter:url(#filter2117)"
             id="rect1860"
             width="9.1271343"
             height="52.64465"
             x="34.494556"
             y="40.598991"
             transform="matrix(0.48437052,0,0,0.56247642,61.851373,43.000602)" />
          <rect
             style="fill:#992c0f;fill-opacity:1;stroke:none;stroke-width:0.224903;stroke-linecap:round;stroke-linejoin:round;stroke-miterlimit:4;stroke-dasharray:none;stroke-opacity:1;filter:url(#filter2137)"
             id="rect1860-3"
             width="9.1568365"
             height="40.598"
             x="44.839146"
             y="52.661602"
             transform="matrix(0.48437166,0,0,0.49558125,11.635371,49.230209)" />
          <rect
             style="fill:#992c0f;fill-opacity:1;stroke:none;stroke-width:0.180953;stroke-linecap:round;stroke-linejoin:round;stroke-miterlimit:4;stroke-dasharray:none;stroke-opacity:1;filter:url(#filter2133)"
             id="rect1860-6"
             width="9.1992359"
             height="26.1602"
             x="55.177387"
             y="67.122169"
             transform="matrix(0.48435267,0,0,1.309488,21.686926,-26.704283)" />
          <rect
             style="fill:#992c0f;fill-opacity:1;stroke:none;stroke-width:0.242516;stroke-linecap:round;stroke-linejoin:round;stroke-miterlimit:4;stroke-dasharray:none;stroke-opacity:1;filter:url(#filter2129)"
             id="rect1860-7"
             width="9.1398439"
             height="47.293499"
             x="65.566528"
             y="45.956966"
             transform="matrix(0.48436865,0,0,0.59947939,21.702992,39.5462)" />
          <rect
             style="fill:#992c0f;fill-opacity:1;stroke:none;stroke-width:0.267214;stroke-linecap:round;stroke-linejoin:round;stroke-miterlimit:4;stroke-dasharray:none;stroke-opacity:1;filter:url(#filter2125)"
             id="rect1860-5"
             width="9.1160164"
             height="57.567055"
             x="75.937881"
             y="35.670612"
             transform="matrix(0.48437003,0,0,0.57898386,36.76852,41.464834)" />
          <rect
             style="fill:#992c0f;fill-opacity:1;stroke:none;stroke-width:0.231515;stroke-linecap:round;stroke-linejoin:round;stroke-miterlimit:4;stroke-dasharray:none;stroke-opacity:1;filter:url(#filter2121)"
             id="rect1860-35"
             width="9.1504583"
             height="43.049824"
             x="86.280098"
             y="50.206337"
             transform="matrix(0.48436164,0,0,0.94197379,26.734138,7.6030667)" />
          <rect
             style="display:inline;mix-blend-mode:normal;fill:#992c0f;fill-opacity:1;stroke:none;stroke-width:0.25569;stroke-linecap:round;stroke-linejoin:round;stroke-miterlimit:4;stroke-dasharray:none;stroke-opacity:1;filter:url(#filter2117-6)"
             id="rect1860-2"
             width="9.1271343"
             height="52.64465"
             x="34.494556"
             y="40.598991"
             transform="matrix(0.48436638,0,0,0.7140675,46.802496,28.865692)" />
          <rect
             style="display:inline;fill:#992c0f;fill-opacity:1;stroke:none;stroke-width:0.224903;stroke-linecap:round;stroke-linejoin:round;stroke-miterlimit:4;stroke-dasharray:none;stroke-opacity:1;filter:url(#filter2137-9)"
             id="rect1860-3-6"
             width="9.1568365"
             height="40.598"
             x="44.839146"
             y="52.661602"
             transform="matrix(0.48437171,0,0,0.49367306,36.762964,49.408188)" />
          <rect
             style="display:inline;fill:#992c0f;fill-opacity:1;stroke:none;stroke-width:0.180953;stroke-linecap:round;stroke-linejoin:round;stroke-miterlimit:4;stroke-dasharray:none;stroke-opacity:1;filter:url(#filter2133-2)"
             id="rect1860-6-1"
             width="9.1992359"
             height="26.1602"
             x="55.177387"
             y="67.122169"
             transform="matrix(0.48436377,0,0,0.81325746,56.847969,19.585347)" />
          <rect
             style="display:inline;fill:#992c0f;fill-opacity:1;stroke:none;stroke-width:0.242516;stroke-linecap:round;stroke-linejoin:round;stroke-miterlimit:4;stroke-dasharray:none;stroke-opacity:1;filter:url(#filter2129-0)"
             id="rect1860-7-8"
             width="9.1398439"
             height="47.293499"
             x="65.566528"
             y="45.956966"
             transform="matrix(0.48436962,0,0,0.56494186,11.633301,42.766813)" />
          <rect
             style="display:inline;fill:#992c0f;fill-opacity:1;stroke:none;stroke-width:0.267214;stroke-linecap:round;stroke-linejoin:round;stroke-miterlimit:4;stroke-dasharray:none;stroke-opacity:1;filter:url(#filter2125-3)"
             id="rect1860-5-7"
             width="9.1160164"
             height="57.567055"
             x="75.937881"
             y="35.670612"
             transform="matrix(0.48437193,0,0,0.48821043,1.6006606,49.928314)" />
          <rect
             style="display:inline;fill:#992c0f;fill-opacity:1;stroke:none;stroke-width:0.231515;stroke-linecap:round;stroke-linejoin:round;stroke-miterlimit:4;stroke-dasharray:none;stroke-opacity:1;filter:url(#filter2121-0)"
             id="rect1860-35-9"
             width="9.1504583"
             height="43.049824"
             x="86.280098"
             y="50.206337"
             transform="matrix(0.48437903,0,0,0.28554501,46.830787,68.819136)" />
        </g>
      </g>
    </g>
  </g>
  <style
     type="text/css"
     id="style973">
	.st0{fill:#3A4249;}
</style>
</svg>
